M71
M48
T1F00S00C0.4000
T2F00S00C0.7000
T3F00S00C0.8000
T4F00S00C0.9000
T5F00S00C0.9200
T6F00S00C1.0000
T7F00S00C2.2000
%
T01
X00149016Y00119133
X00149076Y00140723
Y00162313
X00149016Y00205493
X00230266Y00127253
X00317524Y00137931
X00338576Y00114683
X00338516Y00077858
X00425016Y00096908
X00435256Y00124683
X00439986Y00166123
X00445516Y00076503
X00425016Y00058808
T02
X00525753Y00068914
X005168Y00093
X005318Y00098
X00531799Y00123
X005318Y00143
Y00168
X005168Y00173
Y00153
Y00133
Y00113
X00525753Y0019693
T03
X00591793Y00054436
Y00211662
T04
X00017Y001105
X00017Y001555
T05
X00038Y00098
Y00123
Y00143
Y00168
T06
X00017016Y00076003
Y00190003
T07
X0004Y000055
Y002605
X0054
Y000055
M30
