%FSLAX44Y44*%
%MOMM*%
G71*
G01*
G75*
%ADD10O,2.0320X0.3302*%
%ADD11R,0.8000X0.8000*%
%ADD12R,0.9144X0.9144*%
%ADD13R,1.2700X0.9144*%
%ADD14R,0.5600X0.8200*%
%ADD15C,0.2540*%
%ADD16C,0.5000*%
%ADD17C,0.3000*%
%ADD18C,0.2286*%
%ADD19C,2.2000*%
%ADD20O,1.1000X1.3000*%
%ADD21C,1.3000*%
%ADD22O,2.3000X1.3000*%
%ADD23O,3.2000X1.4000*%
%ADD24C,0.9000*%
%ADD25C,1.8000*%
%ADD26O,2.0000X1.6000*%
%ADD27O,4.0000X1.6000*%
%ADD28C,0.6000*%
%ADD29C,0.2032*%
%ADD30C,0.1500*%
%ADD31C,0.5000*%
%ADD32C,0.1500*%
%ADD33C,0.1500*%
%ADD34C,0.1000*%
%ADD35C,0.1524*%
%ADD36C,0.1270*%
%ADD37O,2.2352X0.5334*%
%ADD38R,1.0032X1.0032*%
%ADD39R,1.1176X1.1176*%
%ADD40R,1.4732X1.1176*%
%ADD41R,0.7632X1.0232*%
%ADD42O,1.3032X1.5032*%
%ADD43C,1.5032*%
%ADD44O,2.5032X1.5032*%
%ADD45O,3.4032X1.6032*%
%ADD46C,1.1032*%
%ADD47C,2.0032*%
%ADD48O,2.2032X1.8032*%
%ADD49O,4.2032X1.8032*%
D36*
X2230896Y2392868D02*
X2228372Y2392797D01*
X2225857Y2392585D01*
X2223358Y2392232D01*
X2220882Y2391740D01*
X2218438Y2391109D01*
X2216033Y2390343D01*
X2213675Y2389443D01*
X2211371Y2388412D01*
X2209128Y2387253D01*
X2206954Y2385971D01*
X2204855Y2384568D01*
X2202838Y2383051D01*
X2200910Y2381422D01*
X2199076Y2379688D01*
X2197342Y2377854D01*
X2195713Y2375925D01*
X2194195Y2373908D01*
X2192793Y2371810D01*
X2191510Y2369635D01*
X2190352Y2367393D01*
X2189321Y2365089D01*
X2188421Y2362731D01*
X2187654Y2360326D01*
X2187024Y2357881D01*
X2186531Y2355406D01*
X2186178Y2352906D01*
X2185966Y2350391D01*
X2185896Y2347868D01*
X2800895Y2092868D02*
X2803419Y2092939D01*
X2805934Y2093151D01*
X2808433Y2093504D01*
X2810909Y2093996D01*
X2813353Y2094627D01*
X2815758Y2095393D01*
X2818116Y2096293D01*
X2820420Y2097325D01*
X2822663Y2098483D01*
X2824837Y2099765D01*
X2826936Y2101168D01*
X2828953Y2102686D01*
X2830881Y2104314D01*
X2832715Y2106048D01*
X2834449Y2107883D01*
X2836078Y2109811D01*
X2837596Y2111828D01*
X2838998Y2113927D01*
X2840281Y2116101D01*
X2841439Y2118343D01*
X2842470Y2120647D01*
X2843370Y2123006D01*
X2844137Y2125411D01*
X2844767Y2127855D01*
X2845260Y2130330D01*
X2845612Y2132830D01*
X2845825Y2135345D01*
X2845895Y2137868D01*
X2735196Y2175368D02*
X2735865Y2172868D01*
X2737696Y2171038D01*
X2740196Y2170368D01*
X2742696Y2171038D01*
X2744525Y2172868D01*
X2745196Y2175368D01*
Y2310368D02*
X2744525Y2312868D01*
X2742696Y2314698D01*
X2740196Y2315368D01*
X2737696Y2314698D01*
X2735865Y2312868D01*
X2735196Y2310368D01*
X2845895Y2347868D02*
X2845825Y2350391D01*
X2845612Y2352906D01*
X2845260Y2355406D01*
X2844767Y2357881D01*
X2844137Y2360326D01*
X2843370Y2362731D01*
X2842470Y2365089D01*
X2841439Y2367393D01*
X2840280Y2369635D01*
X2838998Y2371810D01*
X2837596Y2373908D01*
X2836078Y2375925D01*
X2834449Y2377854D01*
X2832715Y2379688D01*
X2830881Y2381422D01*
X2828952Y2383051D01*
X2826936Y2384568D01*
X2824837Y2385971D01*
X2822663Y2387253D01*
X2820420Y2388412D01*
X2818116Y2389443D01*
X2815758Y2390343D01*
X2813353Y2391109D01*
X2810909Y2391740D01*
X2808433Y2392232D01*
X2805934Y2392585D01*
X2803419Y2392797D01*
X2800895Y2392868D01*
X2185896Y2137868D02*
X2185966Y2135345D01*
X2186178Y2132830D01*
X2186531Y2130330D01*
X2187024Y2127855D01*
X2187654Y2125410D01*
X2188421Y2123006D01*
X2189321Y2120647D01*
X2190352Y2118343D01*
X2191510Y2116101D01*
X2192793Y2113927D01*
X2194195Y2111828D01*
X2195713Y2109811D01*
X2197342Y2107883D01*
X2199076Y2106048D01*
X2200910Y2104314D01*
X2202838Y2102686D01*
X2204855Y2101168D01*
X2206954Y2099765D01*
X2209128Y2098483D01*
X2211371Y2097325D01*
X2213675Y2096293D01*
X2216033Y2095393D01*
X2218438Y2094627D01*
X2220882Y2093996D01*
X2223358Y2093504D01*
X2225857Y2093151D01*
X2228372Y2092939D01*
X2230895Y2092868D01*
X2230896Y2392868D02*
X2800895D01*
X2185896Y2137868D02*
Y2347868D01*
X2230896Y2092868D02*
X2800895D01*
X2845895Y2137868D02*
Y2175368D01*
X2745196D02*
X2845895D01*
X2735196D02*
Y2310368D01*
X2745196D02*
X2845895D01*
Y2347868D01*
M02*
