%FSLAX44Y44*%
%MOMM*%
G71*
G01*
G75*
%ADD10O,2.0320X0.3302*%
%ADD11R,0.8000X0.8000*%
%ADD12R,0.9144X0.9144*%
%ADD13R,1.2700X0.9144*%
%ADD14R,0.5600X0.8200*%
%ADD15C,0.2540*%
%ADD16C,0.5000*%
%ADD17C,0.3000*%
%ADD18C,0.2286*%
%ADD19C,2.2000*%
%ADD20O,1.1000X1.3000*%
%ADD21C,1.3000*%
%ADD22O,2.3000X1.3000*%
%ADD23O,3.2000X1.4000*%
%ADD24C,0.9000*%
%ADD25C,1.8000*%
%ADD26O,2.0000X1.6000*%
%ADD27O,4.0000X1.6000*%
%ADD28C,0.6000*%
%ADD29C,0.2032*%
%ADD30C,0.1500*%
%ADD31C,0.5000*%
%ADD32C,0.1500*%
%ADD33C,0.1500*%
%ADD34C,0.1000*%
%ADD35C,0.1524*%
%ADD36C,0.1270*%
%ADD37O,2.2352X0.5334*%
%ADD38R,1.0032X1.0032*%
%ADD39R,1.1176X1.1176*%
%ADD40R,1.4732X1.1176*%
%ADD41R,0.7632X1.0232*%
%ADD42O,1.3032X1.5032*%
%ADD43C,1.5032*%
%ADD44O,2.5032X1.5032*%
%ADD45O,3.4032X1.6032*%
%ADD46C,1.1032*%
%ADD47C,2.0032*%
%ADD48O,2.2032X1.8032*%
%ADD49O,4.2032X1.8032*%
%ADD50C,0.3048*%
D36*
X2758395Y2370368D02*
X2758254Y2372887D01*
X2757831Y2375375D01*
X2757133Y2377799D01*
X2756167Y2380130D01*
X2754947Y2382339D01*
X2753487Y2384397D01*
X2751805Y2386278D01*
X2749924Y2387959D01*
X2747866Y2389419D01*
X2745658Y2390640D01*
X2743327Y2391605D01*
X2740902Y2392304D01*
X2738415Y2392727D01*
X2735895Y2392868D01*
X2733376Y2392727D01*
X2730889Y2392304D01*
X2728464Y2391605D01*
X2726133Y2390640D01*
X2723925Y2389419D01*
X2721867Y2387959D01*
X2719986Y2386278D01*
X2718304Y2384397D01*
X2716844Y2382339D01*
X2715624Y2380130D01*
X2714658Y2377799D01*
X2713960Y2375375D01*
X2713537Y2372887D01*
X2713395Y2370368D01*
X2713537Y2367849D01*
X2713960Y2365361D01*
X2714658Y2362937D01*
X2715624Y2360606D01*
X2716844Y2358397D01*
X2718304Y2356340D01*
X2719986Y2354458D01*
X2721867Y2352777D01*
X2723925Y2351317D01*
X2726133Y2350096D01*
X2728464Y2349131D01*
X2730889Y2348432D01*
X2733376Y2348009D01*
X2735895Y2347868D01*
X2738415Y2348009D01*
X2740902Y2348432D01*
X2743327Y2349131D01*
X2745658Y2350096D01*
X2747866Y2351317D01*
X2749924Y2352777D01*
X2751805Y2354458D01*
X2753487Y2356340D01*
X2754947Y2358397D01*
X2756167Y2360606D01*
X2757133Y2362937D01*
X2757831Y2365361D01*
X2758254Y2367849D01*
X2758395Y2370368D01*
X2258395Y2370368D02*
X2258254Y2372887D01*
X2257831Y2375375D01*
X2257133Y2377799D01*
X2256167Y2380130D01*
X2254947Y2382339D01*
X2253487Y2384397D01*
X2251805Y2386278D01*
X2249924Y2387959D01*
X2247866Y2389419D01*
X2245658Y2390640D01*
X2243327Y2391605D01*
X2240902Y2392304D01*
X2238415Y2392727D01*
X2235895Y2392868D01*
X2233376Y2392727D01*
X2230889Y2392304D01*
X2228464Y2391605D01*
X2226133Y2390640D01*
X2223925Y2389419D01*
X2221867Y2387959D01*
X2219986Y2386278D01*
X2218304Y2384397D01*
X2216844Y2382339D01*
X2215624Y2380130D01*
X2214658Y2377799D01*
X2213960Y2375375D01*
X2213537Y2372887D01*
X2213395Y2370368D01*
X2213537Y2367849D01*
X2213960Y2365361D01*
X2214658Y2362937D01*
X2215624Y2360606D01*
X2216844Y2358397D01*
X2218304Y2356340D01*
X2219986Y2354458D01*
X2221867Y2352777D01*
X2223925Y2351317D01*
X2226133Y2350096D01*
X2228464Y2349131D01*
X2230889Y2348432D01*
X2233376Y2348009D01*
X2235895Y2347868D01*
X2238415Y2348009D01*
X2240902Y2348432D01*
X2243327Y2349131D01*
X2245658Y2350096D01*
X2247866Y2351317D01*
X2249924Y2352777D01*
X2251805Y2354458D01*
X2253487Y2356340D01*
X2254947Y2358397D01*
X2256167Y2360606D01*
X2257133Y2362937D01*
X2257831Y2365361D01*
X2258254Y2367849D01*
X2258395Y2370368D01*
Y2115368D02*
X2258254Y2117887D01*
X2257831Y2120375D01*
X2257133Y2122799D01*
X2256167Y2125130D01*
X2254947Y2127339D01*
X2253487Y2129397D01*
X2251805Y2131278D01*
X2249924Y2132959D01*
X2247866Y2134419D01*
X2245658Y2135640D01*
X2243327Y2136605D01*
X2240902Y2137304D01*
X2238415Y2137727D01*
X2235895Y2137868D01*
X2233376Y2137727D01*
X2230889Y2137304D01*
X2228464Y2136605D01*
X2226133Y2135640D01*
X2223925Y2134419D01*
X2221867Y2132959D01*
X2219986Y2131278D01*
X2218304Y2129397D01*
X2216844Y2127339D01*
X2215624Y2125130D01*
X2214658Y2122799D01*
X2213960Y2120375D01*
X2213537Y2117887D01*
X2213395Y2115368D01*
X2213537Y2112849D01*
X2213960Y2110361D01*
X2214658Y2107937D01*
X2215624Y2105606D01*
X2216844Y2103397D01*
X2218304Y2101340D01*
X2219986Y2099458D01*
X2221867Y2097777D01*
X2223925Y2096317D01*
X2226133Y2095096D01*
X2228464Y2094131D01*
X2230889Y2093432D01*
X2233376Y2093009D01*
X2235895Y2092868D01*
X2238415Y2093009D01*
X2240902Y2093432D01*
X2243327Y2094131D01*
X2245658Y2095096D01*
X2247866Y2096317D01*
X2249924Y2097777D01*
X2251805Y2099458D01*
X2253487Y2101340D01*
X2254947Y2103397D01*
X2256167Y2105606D01*
X2257133Y2107937D01*
X2257831Y2110361D01*
X2258254Y2112849D01*
X2258395Y2115368D01*
X2758395Y2115368D02*
X2758254Y2117887D01*
X2757831Y2120375D01*
X2757133Y2122799D01*
X2756167Y2125130D01*
X2754947Y2127339D01*
X2753487Y2129397D01*
X2751805Y2131278D01*
X2749924Y2132959D01*
X2747866Y2134419D01*
X2745658Y2135640D01*
X2743327Y2136605D01*
X2740902Y2137304D01*
X2738415Y2137727D01*
X2735895Y2137868D01*
X2733376Y2137727D01*
X2730889Y2137304D01*
X2728464Y2136605D01*
X2726133Y2135640D01*
X2723925Y2134419D01*
X2721867Y2132959D01*
X2719986Y2131278D01*
X2718304Y2129397D01*
X2716844Y2127339D01*
X2715624Y2125130D01*
X2714658Y2122799D01*
X2713960Y2120375D01*
X2713537Y2117887D01*
X2713395Y2115368D01*
X2713537Y2112849D01*
X2713960Y2110361D01*
X2714658Y2107937D01*
X2715624Y2105606D01*
X2716844Y2103397D01*
X2718304Y2101340D01*
X2719986Y2099458D01*
X2721867Y2097777D01*
X2723925Y2096317D01*
X2726133Y2095096D01*
X2728464Y2094131D01*
X2730889Y2093432D01*
X2733376Y2093009D01*
X2735895Y2092868D01*
X2738415Y2093009D01*
X2740902Y2093432D01*
X2743327Y2094131D01*
X2745658Y2095096D01*
X2747866Y2096317D01*
X2749924Y2097777D01*
X2751805Y2099458D01*
X2753487Y2101340D01*
X2754947Y2103397D01*
X2756167Y2105606D01*
X2757133Y2107937D01*
X2757831Y2110361D01*
X2758254Y2112849D01*
X2758395Y2115368D01*
X2724896Y2327868D02*
X2845895D01*
X2724896D02*
Y2350740D01*
X2255523Y2359368D02*
X2716268D01*
X2185896Y2317868D02*
X2246895D01*
Y2350740D01*
X2185896Y2167868D02*
X2246895D01*
Y2134996D02*
Y2167868D01*
X2255523Y2126368D02*
X2716268D01*
X2724896Y2134996D02*
Y2157868D01*
X2845895D01*
M02*
