%FSLAX44Y44*%
%MOMM*%
G71*
G01*
G75*
%ADD10O,2.0320X0.3302*%
%ADD11R,0.8000X0.8000*%
%ADD12R,0.9144X0.9144*%
%ADD13R,1.2700X0.9144*%
%ADD14R,0.5600X0.8200*%
%ADD15C,0.2540*%
%ADD16C,0.5000*%
%ADD17C,0.3000*%
%ADD18C,0.2286*%
%ADD19C,2.2000*%
%ADD20O,1.1000X1.3000*%
%ADD21C,1.3000*%
%ADD22O,2.3000X1.3000*%
%ADD23O,3.2000X1.4000*%
%ADD24C,0.9000*%
%ADD25C,1.8000*%
%ADD26O,2.0000X1.6000*%
%ADD27O,4.0000X1.6000*%
%ADD28C,0.6000*%
%ADD29C,0.2032*%
%ADD30C,0.1500*%
%ADD31C,0.5000*%
%ADD32C,0.1500*%
%ADD33C,0.1500*%
%ADD34C,0.1000*%
%ADD35C,0.1524*%
%ADD36C,0.1270*%
D10*
X2472876Y2262796D02*
D03*
Y2223796D02*
D03*
Y2243296D02*
D03*
Y2275796D02*
D03*
Y2256296D02*
D03*
Y2269296D02*
D03*
X2406996Y2191296D02*
D03*
Y2230296D02*
D03*
Y2223796D02*
D03*
X2472876Y2197796D02*
D03*
Y2204296D02*
D03*
X2406996Y2256296D02*
D03*
Y2236796D02*
D03*
Y2217296D02*
D03*
Y2210796D02*
D03*
Y2204296D02*
D03*
Y2197796D02*
D03*
X2472876Y2230296D02*
D03*
Y2236796D02*
D03*
Y2249796D02*
D03*
Y2191296D02*
D03*
Y2217296D02*
D03*
X2406996Y2275796D02*
D03*
Y2269296D02*
D03*
Y2243296D02*
D03*
Y2262796D02*
D03*
Y2249796D02*
D03*
X2472876Y2210796D02*
D03*
D11*
X2524471Y2186451D02*
D03*
Y2169951D02*
D03*
X2631151D02*
D03*
Y2186451D02*
D03*
X2357471Y2293771D02*
D03*
Y2272181D02*
D03*
Y2250591D02*
D03*
Y2336951D02*
D03*
Y2229001D02*
D03*
X2524471Y2258851D02*
D03*
X2357471Y2315361D02*
D03*
X2297771Y2275991D02*
D03*
X2653381D02*
D03*
X2357471Y2207411D02*
D03*
X2281271Y2275991D02*
D03*
X2524471Y2208051D02*
D03*
X2504151Y2224551D02*
D03*
X2357471Y2185821D02*
D03*
X2504151Y2258851D02*
D03*
Y2186451D02*
D03*
Y2208051D02*
D03*
X2373972Y2272181D02*
D03*
Y2250591D02*
D03*
X2504151Y2169951D02*
D03*
X2631151Y2224551D02*
D03*
X2669882Y2275991D02*
D03*
X2373972Y2207411D02*
D03*
Y2229001D02*
D03*
X2631151Y2208051D02*
D03*
X2373972Y2185821D02*
D03*
Y2336951D02*
D03*
X2524471Y2275351D02*
D03*
X2373972Y2315361D02*
D03*
X2524471Y2224551D02*
D03*
X2373972Y2293771D02*
D03*
X2504151Y2275351D02*
D03*
D12*
X2544791Y2187726D02*
D03*
Y2168676D02*
D03*
X2610831D02*
D03*
Y2187726D02*
D03*
X2544791Y2206776D02*
D03*
Y2225826D02*
D03*
X2610831Y2206776D02*
D03*
Y2225826D02*
D03*
D13*
X2565111Y2178074D02*
D03*
X2590511Y2178328D02*
D03*
X2565111Y2216174D02*
D03*
X2590511Y2216428D02*
D03*
D14*
X2301021Y2207411D02*
D03*
Y2232811D02*
D03*
Y2253131D02*
D03*
X2278021Y2207411D02*
D03*
Y2232811D02*
D03*
Y2253131D02*
D03*
X2674402Y2231541D02*
D03*
Y2253131D02*
D03*
X2651401D02*
D03*
Y2231541D02*
D03*
Y2206141D02*
D03*
X2674402D02*
D03*
D18*
X3024201Y1660123D02*
X3020393Y1663932D01*
X3012775D01*
X3008966Y1660123D01*
Y1644888D01*
X3012775Y1641079D01*
X3020393D01*
X3024201Y1644888D01*
Y1652506D01*
X3016584D01*
X3031819Y1663932D02*
X3047054D01*
X3039437D01*
Y1641079D01*
X3054672D02*
Y1663932D01*
X3066098D01*
X3069907Y1660123D01*
Y1652506D01*
X3066098Y1648697D01*
X3054672D01*
X2575388Y1667386D02*
X2590623D01*
X2583006D01*
Y1644534D01*
X2602050D02*
X2609667D01*
X2613476Y1648342D01*
Y1655960D01*
X2609667Y1659769D01*
X2602050D01*
X2598241Y1655960D01*
Y1648342D01*
X2602050Y1644534D01*
X2621094Y1636916D02*
Y1659769D01*
X2632520D01*
X2636329Y1655960D01*
Y1648342D01*
X2632520Y1644534D01*
X2621094D01*
X2643946D02*
Y1667386D01*
X2655373D01*
X2659181Y1663578D01*
Y1655960D01*
X2655373Y1652151D01*
X2643946D01*
X2670608Y1659769D02*
X2678225D01*
X2682034Y1655960D01*
Y1644534D01*
X2670608D01*
X2666799Y1648342D01*
X2670608Y1652151D01*
X2682034D01*
X2689651Y1644534D02*
X2701078D01*
X2704886Y1648342D01*
X2701078Y1652151D01*
X2693460D01*
X2689651Y1655960D01*
X2693460Y1659769D01*
X2704886D01*
X2716313Y1663578D02*
Y1659769D01*
X2712504D01*
X2720121D01*
X2716313D01*
Y1648342D01*
X2720121Y1644534D01*
X2742974D02*
X2735357D01*
X2731548Y1648342D01*
Y1655960D01*
X2735357Y1659769D01*
X2742974D01*
X2746783Y1655960D01*
Y1652151D01*
X2731548D01*
M02*
