%FSLAX44Y44*%
%MOMM*%
G71*
G01*
G75*
%ADD10O,2.0320X0.3302*%
%ADD11R,0.8000X0.8000*%
%ADD12R,0.9144X0.9144*%
%ADD13R,1.2700X0.9144*%
%ADD14R,0.5600X0.8200*%
%ADD15C,0.2540*%
%ADD16C,0.5000*%
%ADD17C,0.3000*%
%ADD18C,0.2286*%
%ADD19C,2.2000*%
%ADD20O,1.1000X1.3000*%
%ADD21C,1.3000*%
%ADD22O,2.3000X1.3000*%
%ADD23O,3.2000X1.4000*%
%ADD24C,0.9000*%
%ADD25C,1.8000*%
%ADD26O,2.0000X1.6000*%
%ADD27O,4.0000X1.6000*%
%ADD28C,0.6000*%
%ADD29C,0.2032*%
%ADD30C,0.1500*%
%ADD31C,0.5000*%
%ADD32C,0.1500*%
%ADD33C,0.1500*%
%ADD34C,0.1000*%
%ADD35C,0.1524*%
%ADD36C,0.1270*%
%ADD37O,2.2352X0.5334*%
%ADD38R,1.0032X1.0032*%
%ADD39R,1.1176X1.1176*%
%ADD40R,1.4732X1.1176*%
%ADD41R,0.7632X1.0232*%
%ADD42O,1.3032X1.5032*%
%ADD43C,1.5032*%
%ADD44O,2.5032X1.5032*%
%ADD45O,3.4032X1.6032*%
%ADD46C,1.1032*%
%ADD47C,2.0032*%
%ADD48O,2.2032X1.8032*%
%ADD49O,4.2032X1.8032*%
%ADD50C,0.3048*%
D18*
X2357498Y1725093D02*
X2346615Y1709857D01*
X2362940D01*
X2357498Y1725093D02*
Y1702238D01*
X2366967Y1720740D02*
X2369143Y1721828D01*
X2372408Y1725093D01*
Y1702238D01*
X2383727Y1725093D02*
Y1702238D01*
X2398964Y1725093D02*
X2383727Y1709857D01*
X2389169Y1715298D02*
X2398964Y1702238D01*
X2414962Y1725093D02*
X2404079Y1709857D01*
X2420404D01*
X2414962Y1725093D02*
Y1702238D01*
X2424431Y1725093D02*
Y1702238D01*
Y1725093D02*
X2432049D01*
X2435314Y1724005D01*
X2437491Y1721828D01*
X2438579Y1719652D01*
X2439668Y1716387D01*
Y1710945D01*
X2438579Y1707680D01*
X2437491Y1705503D01*
X2435314Y1703327D01*
X2432049Y1702238D01*
X2424431D01*
X2444783Y1725093D02*
Y1702238D01*
Y1725093D02*
X2453489Y1702238D01*
X2462196Y1725093D02*
X2453489Y1702238D01*
X2462196Y1725093D02*
Y1702238D01*
X2469814Y1719652D02*
Y1720740D01*
X2470903Y1722917D01*
X2471991Y1724005D01*
X2474168Y1725093D01*
X2478521D01*
X2480698Y1724005D01*
X2481786Y1722917D01*
X2482874Y1720740D01*
Y1718563D01*
X2481786Y1716387D01*
X2479610Y1713122D01*
X2468726Y1702238D01*
X2483963D01*
X2495608Y1725093D02*
X2492343Y1724005D01*
X2490166Y1720740D01*
X2489078Y1715298D01*
Y1712033D01*
X2490166Y1706592D01*
X2492343Y1703327D01*
X2495608Y1702238D01*
X2497785D01*
X2501050Y1703327D01*
X2503226Y1706592D01*
X2504315Y1712033D01*
Y1715298D01*
X2503226Y1720740D01*
X2501050Y1724005D01*
X2497785Y1725093D01*
X2495608D01*
X2515960D02*
X2512695Y1724005D01*
X2510518Y1720740D01*
X2509430Y1715298D01*
Y1712033D01*
X2510518Y1706592D01*
X2512695Y1703327D01*
X2515960Y1702238D01*
X2518137D01*
X2521402Y1703327D01*
X2523578Y1706592D01*
X2524667Y1712033D01*
Y1715298D01*
X2523578Y1720740D01*
X2521402Y1724005D01*
X2518137Y1725093D01*
X2515960D01*
X2529782D02*
X2545019Y1702238D01*
Y1725093D02*
X2529782Y1702238D01*
X2550134Y1725093D02*
X2565370Y1702238D01*
Y1725093D02*
X2550134Y1702238D01*
X2570486Y1725093D02*
X2585722Y1702238D01*
Y1725093D02*
X2570486Y1702238D01*
X2590838Y1725093D02*
X2606075Y1702238D01*
Y1725093D02*
X2590838Y1702238D01*
X2611190Y1725093D02*
Y1702238D01*
X2624250D01*
X2166275Y1658977D02*
Y1636122D01*
Y1658977D02*
X2176070D01*
X2179335Y1657889D01*
X2180423Y1656800D01*
X2181511Y1654624D01*
Y1652447D01*
X2180423Y1650270D01*
X2179335Y1649182D01*
X2176070Y1648094D01*
X2166275D02*
X2176070D01*
X2179335Y1647005D01*
X2180423Y1645917D01*
X2181511Y1643740D01*
Y1640475D01*
X2180423Y1638299D01*
X2179335Y1637210D01*
X2176070Y1636122D01*
X2166275D01*
X2187715Y1653535D02*
Y1654624D01*
X2188803Y1656800D01*
X2189892Y1657889D01*
X2192068Y1658977D01*
X2196422D01*
X2198598Y1657889D01*
X2199687Y1656800D01*
X2200775Y1654624D01*
Y1652447D01*
X2199687Y1650270D01*
X2197510Y1647005D01*
X2186626Y1636122D01*
X2201863D01*
X2223304Y1653535D02*
X2222215Y1655712D01*
X2220038Y1657889D01*
X2217862Y1658977D01*
X2213508D01*
X2211332Y1657889D01*
X2209155Y1655712D01*
X2208067Y1653535D01*
X2206978Y1650270D01*
Y1644829D01*
X2208067Y1641564D01*
X2209155Y1639387D01*
X2211332Y1637210D01*
X2213508Y1636122D01*
X2217862D01*
X2220038Y1637210D01*
X2222215Y1639387D01*
X2223304Y1641564D01*
X2861907Y1727633D02*
X2858642Y1726545D01*
X2856465Y1723280D01*
X2855377Y1717838D01*
Y1714573D01*
X2856465Y1709132D01*
X2858642Y1705867D01*
X2861907Y1704778D01*
X2864083D01*
X2867348Y1705867D01*
X2869525Y1709132D01*
X2870613Y1714573D01*
Y1717838D01*
X2869525Y1723280D01*
X2867348Y1726545D01*
X2864083Y1727633D01*
X2861907D01*
X2877905D02*
X2889877D01*
X2883347Y1718927D01*
X2886612D01*
X2888788Y1717838D01*
X2889877Y1716750D01*
X2890965Y1713485D01*
Y1711308D01*
X2889877Y1708043D01*
X2887700Y1705867D01*
X2884435Y1704778D01*
X2881170D01*
X2877905Y1705867D01*
X2876817Y1706955D01*
X2875728Y1709132D01*
X2896080Y1701513D02*
X2911317Y1727633D01*
X2912841Y1723280D02*
X2915017Y1724368D01*
X2918282Y1727633D01*
Y1704778D01*
X2940485Y1727633D02*
X2929601Y1712397D01*
X2945926D01*
X2940485Y1727633D02*
Y1704778D01*
X2949953Y1701513D02*
X2965190Y1727633D01*
X2967802Y1722192D02*
Y1723280D01*
X2968890Y1725457D01*
X2969979Y1726545D01*
X2972155Y1727633D01*
X2976509D01*
X2978685Y1726545D01*
X2979774Y1725457D01*
X2980862Y1723280D01*
Y1721103D01*
X2979774Y1718927D01*
X2977597Y1715662D01*
X2966714Y1704778D01*
X2981950D01*
X2993596Y1727633D02*
X2990331Y1726545D01*
X2988154Y1723280D01*
X2987065Y1717838D01*
Y1714573D01*
X2988154Y1709132D01*
X2990331Y1705867D01*
X2993596Y1704778D01*
X2995772D01*
X2999037Y1705867D01*
X3001214Y1709132D01*
X3002302Y1714573D01*
Y1717838D01*
X3001214Y1723280D01*
X2999037Y1726545D01*
X2995772Y1727633D01*
X2993596D01*
X3007418Y1723280D02*
X3009594Y1724368D01*
X3012859Y1727633D01*
Y1704778D01*
X3035061Y1727633D02*
X3024178Y1712397D01*
X3040503D01*
X3035061Y1727633D02*
Y1704778D01*
X2725202Y1723280D02*
X2727378Y1724368D01*
X2730643Y1727633D01*
Y1704778D01*
X2743050Y1706955D02*
X2741962Y1705867D01*
X2743050Y1704778D01*
X2744139Y1705867D01*
X2743050Y1706955D01*
X2755675Y1727633D02*
X2752410Y1726545D01*
X2750233Y1723280D01*
X2749145Y1717838D01*
Y1714573D01*
X2750233Y1709132D01*
X2752410Y1705867D01*
X2755675Y1704778D01*
X2757852D01*
X2761117Y1705867D01*
X2763293Y1709132D01*
X2764382Y1714573D01*
Y1717838D01*
X2763293Y1723280D01*
X2761117Y1726545D01*
X2757852Y1727633D01*
X2755675D01*
D29*
X3090327Y1733607D02*
X3090087Y1736035D01*
X3089379Y1738370D01*
X3088229Y1740522D01*
X3086681Y1742408D01*
X3084795Y1743956D01*
X3082643Y1745106D01*
X3080309Y1745814D01*
X3077881Y1746053D01*
X2798227Y1746053D02*
X2795749Y1745809D01*
X2793366Y1745087D01*
X2791171Y1743913D01*
X2789246Y1742334D01*
X2787667Y1740409D01*
X2786493Y1738213D01*
X2785771Y1735831D01*
X2785526Y1733353D01*
X3077627Y1758753D02*
X3080104Y1758997D01*
X3082487Y1759720D01*
X3084682Y1760894D01*
X3086607Y1762473D01*
X3088186Y1764397D01*
X3089360Y1766593D01*
X3090082Y1768976D01*
X3090327Y1771453D01*
X2785526D02*
X2785771Y1768976D01*
X2786493Y1766593D01*
X2787667Y1764397D01*
X2789246Y1762473D01*
X2791171Y1760894D01*
X2793366Y1759720D01*
X2795749Y1758997D01*
X2798227Y1758753D01*
X1985426Y1638357D02*
X1985547Y1635871D01*
X1985909Y1633407D01*
X1986507Y1630991D01*
X1987337Y1628643D01*
X1988390Y1626388D01*
X1989657Y1624245D01*
X1991126Y1622234D01*
X1992783Y1620376D01*
X1994612Y1618687D01*
X1996596Y1617184D01*
X1998717Y1615879D01*
X2000954Y1614787D01*
X2003286Y1613916D01*
X2005692Y1613276D01*
X2008149Y1612871D01*
X2010633Y1612707D01*
X3077627Y1612703D02*
X3080116Y1612826D01*
X3082582Y1613191D01*
X3085000Y1613797D01*
X3087347Y1614637D01*
X3089600Y1615703D01*
X3091738Y1616984D01*
X3093740Y1618469D01*
X3095587Y1620143D01*
X3097261Y1621990D01*
X3098746Y1623992D01*
X3100027Y1626130D01*
X3101093Y1628383D01*
X3101933Y1630730D01*
X3102538Y1633148D01*
X3102904Y1635614D01*
X3103026Y1638103D01*
Y1917503D02*
X3102904Y1919993D01*
X3102538Y1922459D01*
X3101933Y1924877D01*
X3101093Y1927223D01*
X3100027Y1929477D01*
X3098746Y1931615D01*
X3097261Y1933617D01*
X3095587Y1935464D01*
X3093740Y1937138D01*
X3091738Y1938623D01*
X3089600Y1939904D01*
X3087347Y1940970D01*
X3085000Y1941810D01*
X3082582Y1942415D01*
X3080116Y1942781D01*
X3077627Y1942903D01*
X3090327Y1917757D02*
X3090077Y1920239D01*
X3089337Y1922620D01*
X3088138Y1924807D01*
X3086526Y1926710D01*
X3084568Y1928254D01*
X3082341Y1929377D01*
X3079935Y1930033D01*
X3077446Y1930196D01*
X3077627Y1688903D02*
X3080104Y1689147D01*
X3082487Y1689870D01*
X3084682Y1691044D01*
X3086607Y1692623D01*
X3088186Y1694547D01*
X3089360Y1696743D01*
X3090082Y1699126D01*
X3090327Y1701603D01*
X3090327Y1663725D02*
X3090046Y1666171D01*
X3089297Y1668517D01*
X3088111Y1670675D01*
X3086530Y1672563D01*
X3084614Y1674111D01*
X3082436Y1675260D01*
X3080078Y1675967D01*
X3077627Y1676206D01*
Y1625403D02*
X3080104Y1625647D01*
X3082487Y1626370D01*
X3084682Y1627544D01*
X3086607Y1629123D01*
X3088186Y1631048D01*
X3089360Y1633243D01*
X3090082Y1635626D01*
X3090327Y1638103D01*
X2760127Y1688903D02*
X2762604Y1689147D01*
X2764987Y1689870D01*
X2767182Y1691044D01*
X2769107Y1692623D01*
X2770686Y1694547D01*
X2771860Y1696743D01*
X2772582Y1699126D01*
X2772827Y1701603D01*
X2785526Y1701349D02*
X2785771Y1698895D01*
X2786495Y1696536D01*
X2787669Y1694367D01*
X2789249Y1692472D01*
X2791171Y1690926D01*
X2793361Y1689789D01*
X2795731Y1689107D01*
X2798190Y1688905D01*
X2772827Y1733607D02*
X2772587Y1736035D01*
X2771879Y1738370D01*
X2770729Y1740522D01*
X2769181Y1742408D01*
X2767295Y1743956D01*
X2765143Y1745106D01*
X2762809Y1745814D01*
X2760381Y1746053D01*
X1998127Y1638103D02*
X1998365Y1635653D01*
X1999072Y1633294D01*
X2000221Y1631117D01*
X2001768Y1629202D01*
X2003656Y1627621D01*
X2005813Y1626435D01*
X2008159Y1625687D01*
X2010605Y1625405D01*
X2760348Y1758753D02*
X2762795Y1759034D01*
X2765141Y1759782D01*
X2767299Y1760969D01*
X2769187Y1762550D01*
X2770734Y1764465D01*
X2771883Y1766644D01*
X2772590Y1769002D01*
X2772829Y1771453D01*
X2010827Y1676203D02*
X2008349Y1675959D01*
X2005966Y1675237D01*
X2003771Y1674063D01*
X2001846Y1672484D01*
X2000267Y1670559D01*
X1999093Y1668363D01*
X1998371Y1665981D01*
X1998127Y1663503D01*
X2772827Y1854003D02*
X2772582Y1856481D01*
X2771860Y1858863D01*
X2770686Y1861059D01*
X2769107Y1862984D01*
X2767182Y1864563D01*
X2764987Y1865737D01*
X2762604Y1866459D01*
X2760127Y1866703D01*
Y1879403D02*
X2762604Y1879647D01*
X2764987Y1880370D01*
X2767182Y1881544D01*
X2769107Y1883123D01*
X2770686Y1885047D01*
X2771860Y1887243D01*
X2772582Y1889626D01*
X2772827Y1892103D01*
X2798227Y1930203D02*
X2795749Y1929959D01*
X2793366Y1929237D01*
X2791171Y1928063D01*
X2789246Y1926483D01*
X2787667Y1924559D01*
X2786493Y1922363D01*
X2785771Y1919981D01*
X2785526Y1917503D01*
X2772827D02*
X2772582Y1919981D01*
X2771860Y1922363D01*
X2770686Y1924559D01*
X2769107Y1926483D01*
X2767182Y1928063D01*
X2764987Y1929237D01*
X2762604Y1929959D01*
X2760127Y1930203D01*
X2010827Y1930203D02*
X2008349Y1929959D01*
X2005966Y1929236D01*
X2003771Y1928063D01*
X2001846Y1926483D01*
X2000267Y1924559D01*
X1999093Y1922363D01*
X1998371Y1919981D01*
X1998127Y1917503D01*
X1998127Y1892103D02*
X1998371Y1889626D01*
X1999093Y1887243D01*
X2000267Y1885047D01*
X2001846Y1883123D01*
X2003771Y1881544D01*
X2005966Y1880370D01*
X2008349Y1879647D01*
X2010827Y1879403D01*
Y1866703D02*
X2008349Y1866459D01*
X2005966Y1865737D01*
X2003771Y1864563D01*
X2001846Y1862984D01*
X2000267Y1861059D01*
X1999093Y1858863D01*
X1998371Y1856481D01*
X1998127Y1854003D01*
Y1796853D02*
X1998371Y1794376D01*
X1999093Y1791993D01*
X2000267Y1789798D01*
X2001846Y1787873D01*
X2003771Y1786294D01*
X2005966Y1785120D01*
X2008349Y1784397D01*
X2010827Y1784153D01*
Y1771453D02*
X2008349Y1771209D01*
X2005966Y1770487D01*
X2003771Y1769313D01*
X2001846Y1767733D01*
X2000267Y1765809D01*
X1999093Y1763613D01*
X1998371Y1761231D01*
X1998127Y1758753D01*
Y1701603D02*
X1998365Y1699153D01*
X1999072Y1696794D01*
X2000221Y1694617D01*
X2001768Y1692702D01*
X2003656Y1691121D01*
X2005813Y1689935D01*
X2008159Y1689187D01*
X2010605Y1688905D01*
X2239427Y1866703D02*
X2236949Y1866459D01*
X2234566Y1865737D01*
X2232371Y1864563D01*
X2230446Y1862984D01*
X2228867Y1861059D01*
X2227693Y1858863D01*
X2226971Y1856481D01*
X2226727Y1854003D01*
X2683419Y1746053D02*
X2680962Y1745803D01*
X2678606Y1745063D01*
X2676447Y1743864D01*
X2674575Y1742254D01*
X2673065Y1740300D01*
X2671980Y1738081D01*
X2671364Y1735690D01*
X2671243Y1733223D01*
X2671227Y1701857D02*
X2671470Y1699358D01*
X2672191Y1696952D01*
X2673363Y1694731D01*
X2674941Y1692778D01*
X2676866Y1691166D01*
X2679067Y1689955D01*
X2681460Y1689192D01*
X2683954Y1688905D01*
X2646081Y1688903D02*
X2648535Y1689148D01*
X2650894Y1689872D01*
X2653063Y1691046D01*
X2654958Y1692626D01*
X2656504Y1694548D01*
X2657640Y1696737D01*
X2658323Y1699108D01*
X2658524Y1701566D01*
X2658527Y1733607D02*
X2658287Y1736035D01*
X2657579Y1738370D01*
X2656429Y1740522D01*
X2654881Y1742408D01*
X2652995Y1743956D01*
X2650844Y1745106D01*
X2648509Y1745814D01*
X2646081Y1746053D01*
X2201581Y1688903D02*
X2204009Y1689142D01*
X2206343Y1689851D01*
X2208495Y1691001D01*
X2210381Y1692549D01*
X2211929Y1694435D01*
X2213079Y1696586D01*
X2213787Y1698921D01*
X2214026Y1701349D01*
X2226727D02*
X2226966Y1698921D01*
X2227674Y1696586D01*
X2228824Y1694435D01*
X2230372Y1692549D01*
X2232258Y1691001D01*
X2234410Y1689851D01*
X2236744Y1689142D01*
X2239173Y1688903D01*
X2226727Y1771199D02*
X2226966Y1768771D01*
X2227674Y1766436D01*
X2228824Y1764285D01*
X2230372Y1762399D01*
X2232258Y1760851D01*
X2234410Y1759701D01*
X2236744Y1758992D01*
X2239173Y1758753D01*
X2214026Y1759007D02*
X2213777Y1761489D01*
X2213037Y1763870D01*
X2211838Y1766057D01*
X2210226Y1767960D01*
X2208268Y1769504D01*
X2206041Y1770627D01*
X2203635Y1771283D01*
X2201146Y1771446D01*
X2201835Y1784153D02*
X2204213Y1784388D01*
X2206500Y1785081D01*
X2208608Y1786208D01*
X2210456Y1787724D01*
X2211972Y1789572D01*
X2213098Y1791680D01*
X2213792Y1793967D01*
X2214026Y1796345D01*
X2214026Y1854257D02*
X2213787Y1856685D01*
X2213079Y1859020D01*
X2211929Y1861172D01*
X2210381Y1863058D01*
X2208495Y1864606D01*
X2206343Y1865756D01*
X2204009Y1866464D01*
X2201581Y1866703D01*
X2937927Y1676203D02*
X2935449Y1675959D01*
X2933066Y1675237D01*
X2930871Y1674063D01*
X2928946Y1672484D01*
X2927367Y1670559D01*
X2926193Y1668363D01*
X2925471Y1665981D01*
X2925226Y1663503D01*
Y1637849D02*
X2925471Y1635394D01*
X2926195Y1633036D01*
X2927369Y1630867D01*
X2928949Y1628972D01*
X2930871Y1627426D01*
X2933061Y1626289D01*
X2935431Y1625607D01*
X2937890Y1625405D01*
X2900122Y1625403D02*
X2902583Y1625610D01*
X2904952Y1626309D01*
X2907132Y1627471D01*
X2909032Y1629048D01*
X2910576Y1630976D01*
X2911700Y1633176D01*
X2912357Y1635556D01*
X2912522Y1638021D01*
X2912527Y1663503D02*
X2912282Y1665981D01*
X2911560Y1668363D01*
X2910386Y1670559D01*
X2908807Y1672484D01*
X2906882Y1674063D01*
X2904687Y1675237D01*
X2902304Y1675959D01*
X2899826Y1676203D01*
X2461676Y1638103D02*
X2461915Y1635653D01*
X2462622Y1633294D01*
X2463771Y1631117D01*
X2465318Y1629202D01*
X2467206Y1627621D01*
X2469363Y1626435D01*
X2471709Y1625687D01*
X2474155Y1625405D01*
X2474377Y1676203D02*
X2471899Y1675959D01*
X2469516Y1675237D01*
X2467321Y1674063D01*
X2465396Y1672484D01*
X2463817Y1670559D01*
X2462643Y1668363D01*
X2461921Y1665981D01*
X2461676Y1663503D01*
X2436572Y1625403D02*
X2439033Y1625610D01*
X2441402Y1626309D01*
X2443582Y1627471D01*
X2445482Y1629048D01*
X2447026Y1630976D01*
X2448150Y1633176D01*
X2448808Y1635556D01*
X2448972Y1638021D01*
X2448976Y1663503D02*
X2448732Y1665981D01*
X2448010Y1668363D01*
X2446836Y1670559D01*
X2445257Y1672484D01*
X2443332Y1674063D01*
X2441137Y1675237D01*
X2438754Y1675959D01*
X2436277Y1676203D01*
X2010827Y1942903D02*
X2008337Y1942781D01*
X2005871Y1942415D01*
X2003453Y1941810D01*
X2001106Y1940970D01*
X1998853Y1939904D01*
X1996715Y1938623D01*
X1994713Y1937138D01*
X1992866Y1935464D01*
X1991192Y1933617D01*
X1989707Y1931615D01*
X1988426Y1929477D01*
X1987360Y1927223D01*
X1986520Y1924877D01*
X1985915Y1922458D01*
X1985549Y1919993D01*
X1985426Y1917503D01*
X2239427Y1746053D02*
X2236949Y1745809D01*
X2234566Y1745087D01*
X2232371Y1743913D01*
X2230446Y1742334D01*
X2228867Y1740409D01*
X2227693Y1738213D01*
X2226971Y1735831D01*
X2226727Y1733353D01*
X2010827Y1866703D02*
X2201326D01*
X2214026Y1796853D02*
Y1854003D01*
X2474377Y1625403D02*
X2899826D01*
X2010827D02*
X2436277D01*
X2010827Y1676203D02*
X2436277D01*
X2474377D02*
X2899826D01*
X2937927Y1625403D02*
X3077627D01*
X2937927Y1676203D02*
X3077627D01*
X2010827Y1930203D02*
X2760127D01*
X2010827Y1612703D02*
X3077627D01*
X2010827Y1942903D02*
X3077627D01*
X2010827Y1688903D02*
X2201326D01*
X2010827Y1771453D02*
X2201326D01*
X2010827Y1784153D02*
X2201326D01*
X2010827Y1879403D02*
X2760127D01*
X2239427Y1866703D02*
X2760127D01*
X2239427Y1746053D02*
X2645826D01*
X2239427Y1688903D02*
X2645826D01*
X2683926D02*
X2760127D01*
X2683926Y1746053D02*
X2760127D01*
X2798227Y1688903D02*
X3077627D01*
X2798227Y1930203D02*
X3077627D01*
X2239427Y1758753D02*
X2760127D01*
X2798227D02*
X3077627D01*
X2798227Y1746053D02*
X3077627D01*
X2448976Y1638103D02*
Y1663503D01*
X2461676Y1638103D02*
Y1663503D01*
X2912527Y1638103D02*
Y1663503D01*
X2925226Y1638103D02*
Y1663503D01*
X1998127Y1701603D02*
Y1758753D01*
X2214026Y1701603D02*
Y1758753D01*
X1998127Y1796853D02*
Y1854003D01*
Y1892103D02*
Y1917503D01*
X2772827Y1892103D02*
Y1917503D01*
Y1771453D02*
Y1854003D01*
X2226727Y1771453D02*
Y1854003D01*
X2658527Y1701603D02*
Y1733353D01*
X2226727Y1701603D02*
Y1733353D01*
X2671227Y1701603D02*
Y1733353D01*
X2772827Y1701603D02*
Y1733353D01*
X3090327Y1638103D02*
Y1663503D01*
Y1701603D02*
Y1727003D01*
X1998127Y1638103D02*
Y1663503D01*
X1985426Y1638103D02*
Y1917503D01*
X2785526Y1771453D02*
Y1917503D01*
X3090327Y1771453D02*
Y1917503D01*
X2785526Y1701603D02*
Y1733353D01*
X3103026Y1638103D02*
Y1917503D01*
X3090327Y1727003D02*
Y1733607D01*
D34*
X2108150Y1845971D02*
Y1841973D01*
X2110150Y1839973D01*
X2112149Y1841973D01*
Y1845971D01*
X2114149D02*
X2116148D01*
X2115148D01*
Y1839973D01*
X2114149D01*
X2116148D01*
X2119147Y1845971D02*
Y1841973D01*
X2121146Y1839973D01*
X2123145Y1841973D01*
Y1845971D01*
X2125145D02*
X2127144D01*
X2126145D01*
Y1839973D01*
X2125145D01*
X2127144D01*
D36*
X2731194Y2207868D02*
X2730375Y2210118D01*
X2728302Y2211315D01*
X2725944Y2210899D01*
X2724405Y2209065D01*
Y2206671D01*
X2725944Y2204837D01*
X2728302Y2204421D01*
X2730375Y2205618D01*
X2731194Y2207868D01*
X2716195Y2185368D02*
X2713708Y2184873D01*
X2711599Y2183464D01*
X2710190Y2181355D01*
X2709695Y2178868D01*
X2710190Y2176381D01*
X2711599Y2174272D01*
X2713708Y2172863D01*
X2716195Y2172368D01*
X2727195D02*
X2729683Y2172863D01*
X2731791Y2174272D01*
X2733201Y2176381D01*
X2733695Y2178868D01*
X2733201Y2181355D01*
X2731791Y2183464D01*
X2729683Y2184873D01*
X2727195Y2185368D01*
X2719195Y2202868D02*
X2718701Y2205356D01*
X2717292Y2207464D01*
X2715183Y2208873D01*
X2712695Y2209368D01*
X2710208Y2208873D01*
X2708099Y2207464D01*
X2706690Y2205356D01*
X2706195Y2202868D01*
X2706690Y2200381D01*
X2708099Y2198272D01*
X2710208Y2196863D01*
X2712695Y2196368D01*
X2715183Y2196863D01*
X2717292Y2198272D01*
X2718701Y2200381D01*
X2719195Y2202868D01*
X2734194Y2207868D02*
X2733699Y2210356D01*
X2732290Y2212464D01*
X2730181Y2213873D01*
X2727694Y2214368D01*
X2725207Y2213873D01*
X2723098Y2212464D01*
X2721689Y2210356D01*
X2721194Y2207868D01*
X2721689Y2205381D01*
X2723098Y2203272D01*
X2725207Y2201863D01*
X2727694Y2201368D01*
X2730181Y2201863D01*
X2732290Y2203272D01*
X2733699Y2205381D01*
X2734194Y2207868D01*
X2719195Y2222868D02*
X2718701Y2225356D01*
X2717292Y2227464D01*
X2715183Y2228873D01*
X2712695Y2229368D01*
X2710208Y2228873D01*
X2708099Y2227464D01*
X2706690Y2225356D01*
X2706195Y2222868D01*
X2706690Y2220381D01*
X2708099Y2218272D01*
X2710208Y2216863D01*
X2712695Y2216368D01*
X2715183Y2216863D01*
X2717292Y2218272D01*
X2718701Y2220381D01*
X2719195Y2222868D01*
X2734194Y2232868D02*
X2733699Y2235356D01*
X2732290Y2237464D01*
X2730181Y2238873D01*
X2727694Y2239368D01*
X2725207Y2238873D01*
X2723098Y2237464D01*
X2721689Y2235356D01*
X2721194Y2232868D01*
X2721689Y2230381D01*
X2723098Y2228272D01*
X2725207Y2226863D01*
X2727694Y2226368D01*
X2730181Y2226863D01*
X2732290Y2228272D01*
X2733699Y2230381D01*
X2734194Y2232868D01*
X2727195Y2175368D02*
X2729670Y2176393D01*
X2730695Y2178868D01*
X2729670Y2181343D01*
X2727195Y2182368D01*
X2716195D02*
X2713720Y2181343D01*
X2712695Y2178868D01*
X2713720Y2176393D01*
X2716195Y2175368D01*
X2716195Y2202868D02*
X2715377Y2205118D01*
X2713303Y2206315D01*
X2710945Y2205899D01*
X2709406Y2204065D01*
Y2201671D01*
X2710945Y2199837D01*
X2713303Y2199421D01*
X2715377Y2200618D01*
X2716195Y2202868D01*
Y2222868D02*
X2715377Y2225118D01*
X2713303Y2226315D01*
X2710945Y2225899D01*
X2709406Y2224065D01*
Y2221671D01*
X2710945Y2219837D01*
X2713303Y2219421D01*
X2715377Y2220618D01*
X2716195Y2222868D01*
X2731194Y2232868D02*
X2730375Y2235118D01*
X2728302Y2236315D01*
X2725944Y2235899D01*
X2724405Y2234065D01*
Y2231671D01*
X2725944Y2229837D01*
X2728302Y2229421D01*
X2730375Y2230618D01*
X2731194Y2232868D01*
X2778695Y2171368D02*
X2776301Y2170946D01*
X2774196Y2169730D01*
X2772633Y2167868D01*
X2771802Y2165584D01*
Y2163152D01*
X2772633Y2160868D01*
X2774196Y2159006D01*
X2776301Y2157790D01*
X2778695Y2157368D01*
X2796695D02*
X2799089Y2157790D01*
X2801195Y2159006D01*
X2802758Y2160868D01*
X2803589Y2163152D01*
Y2165584D01*
X2802758Y2167868D01*
X2801195Y2169730D01*
X2799089Y2170946D01*
X2796695Y2171368D01*
Y2160368D02*
X2799047Y2161132D01*
X2800500Y2163132D01*
Y2165604D01*
X2799047Y2167604D01*
X2796695Y2168368D01*
X2778695D02*
X2776344Y2167604D01*
X2774891Y2165604D01*
Y2163132D01*
X2776344Y2161132D01*
X2778695Y2160368D01*
X2719195Y2242868D02*
X2718701Y2245356D01*
X2717292Y2247464D01*
X2715183Y2248873D01*
X2712695Y2249368D01*
X2710208Y2248873D01*
X2708099Y2247464D01*
X2706690Y2245356D01*
X2706195Y2242868D01*
X2706690Y2240381D01*
X2708099Y2238272D01*
X2710208Y2236863D01*
X2712695Y2236368D01*
X2715183Y2236863D01*
X2717292Y2238272D01*
X2718701Y2240381D01*
X2719195Y2242868D01*
X2734194Y2252868D02*
X2733699Y2255356D01*
X2732290Y2257464D01*
X2730181Y2258873D01*
X2727694Y2259368D01*
X2725207Y2258873D01*
X2723098Y2257464D01*
X2721689Y2255356D01*
X2721194Y2252868D01*
X2721689Y2250381D01*
X2723098Y2248272D01*
X2725207Y2246863D01*
X2727694Y2246368D01*
X2730181Y2246863D01*
X2732290Y2248272D01*
X2733699Y2250381D01*
X2734194Y2252868D01*
X2719195Y2282868D02*
X2718701Y2285356D01*
X2717292Y2287464D01*
X2715183Y2288873D01*
X2712695Y2289368D01*
X2710208Y2288873D01*
X2708099Y2287464D01*
X2706690Y2285356D01*
X2706195Y2282868D01*
X2706690Y2280381D01*
X2708099Y2278272D01*
X2710208Y2276863D01*
X2712695Y2276368D01*
X2715183Y2276863D01*
X2717292Y2278272D01*
X2718701Y2280381D01*
X2719195Y2282868D01*
Y2262868D02*
X2718701Y2265356D01*
X2717292Y2267464D01*
X2715183Y2268873D01*
X2712695Y2269368D01*
X2710208Y2268873D01*
X2708099Y2267464D01*
X2706690Y2265356D01*
X2706195Y2262868D01*
X2706690Y2260381D01*
X2708099Y2258272D01*
X2710208Y2256863D01*
X2712695Y2256368D01*
X2715183Y2256863D01*
X2717292Y2258272D01*
X2718701Y2260381D01*
X2719195Y2262868D01*
X2734194Y2277868D02*
X2733699Y2280356D01*
X2732290Y2282464D01*
X2730181Y2283873D01*
X2727694Y2284368D01*
X2725206Y2283873D01*
X2723098Y2282464D01*
X2721689Y2280356D01*
X2721194Y2277868D01*
X2721689Y2275381D01*
X2723098Y2273272D01*
X2725206Y2271863D01*
X2727694Y2271368D01*
X2730181Y2271863D01*
X2732290Y2273272D01*
X2733699Y2275381D01*
X2734194Y2277868D01*
X2716195Y2242868D02*
X2715377Y2245118D01*
X2713303Y2246315D01*
X2710945Y2245899D01*
X2709406Y2244065D01*
Y2241671D01*
X2710945Y2239837D01*
X2713303Y2239421D01*
X2715377Y2240618D01*
X2716195Y2242868D01*
X2731194Y2252868D02*
X2730375Y2255118D01*
X2728302Y2256315D01*
X2725944Y2255899D01*
X2724405Y2254065D01*
Y2251671D01*
X2725944Y2249837D01*
X2728302Y2249421D01*
X2730375Y2250618D01*
X2731194Y2252868D01*
X2716195Y2282868D02*
X2715377Y2285118D01*
X2713303Y2286315D01*
X2710945Y2285899D01*
X2709406Y2284065D01*
Y2281671D01*
X2710945Y2279837D01*
X2713303Y2279421D01*
X2715377Y2280618D01*
X2716195Y2282868D01*
X2716195Y2262868D02*
X2715377Y2265118D01*
X2713303Y2266315D01*
X2710945Y2265899D01*
X2709406Y2264065D01*
Y2261671D01*
X2710945Y2259837D01*
X2713303Y2259421D01*
X2715377Y2260618D01*
X2716195Y2262868D01*
X2731194Y2277868D02*
X2730375Y2280118D01*
X2728302Y2281315D01*
X2725944Y2280899D01*
X2724405Y2279065D01*
Y2276671D01*
X2725944Y2274837D01*
X2728302Y2274421D01*
X2730375Y2275618D01*
X2731194Y2277868D01*
X2727195Y2300368D02*
X2729683Y2300863D01*
X2731791Y2302272D01*
X2733201Y2304381D01*
X2733695Y2306868D01*
X2733201Y2309355D01*
X2731791Y2311464D01*
X2729683Y2312873D01*
X2727195Y2313368D01*
X2716195D02*
X2713708Y2312873D01*
X2711599Y2311464D01*
X2710190Y2309355D01*
X2709695Y2306868D01*
X2710190Y2304381D01*
X2711599Y2302272D01*
X2713708Y2300863D01*
X2716195Y2300368D01*
Y2310368D02*
X2713720Y2309343D01*
X2712695Y2306868D01*
X2713720Y2304393D01*
X2716195Y2303368D01*
X2727195D02*
X2729670Y2304393D01*
X2730695Y2306868D01*
X2729670Y2309343D01*
X2727195Y2310368D01*
X2796695Y2314368D02*
X2799089Y2314790D01*
X2801195Y2316006D01*
X2802758Y2317868D01*
X2803589Y2320152D01*
Y2322584D01*
X2802758Y2324868D01*
X2801195Y2326730D01*
X2799089Y2327946D01*
X2796695Y2328368D01*
X2778695D02*
X2776301Y2327946D01*
X2774196Y2326730D01*
X2772633Y2324868D01*
X2771802Y2322584D01*
Y2320152D01*
X2772633Y2317868D01*
X2774196Y2316006D01*
X2776301Y2314790D01*
X2778695Y2314368D01*
Y2325368D02*
X2776344Y2324604D01*
X2774891Y2322604D01*
Y2320132D01*
X2776344Y2318132D01*
X2778695Y2317368D01*
X2796695D02*
X2799047Y2318132D01*
X2800500Y2320132D01*
Y2322604D01*
X2799047Y2324604D01*
X2796695Y2325368D01*
X2746895Y2370368D02*
X2746599Y2372905D01*
X2745725Y2375305D01*
X2744322Y2377439D01*
X2742464Y2379191D01*
X2740252Y2380468D01*
X2737805Y2381201D01*
X2735256Y2381349D01*
X2732740Y2380906D01*
X2730396Y2379894D01*
X2728347Y2378369D01*
X2726705Y2376413D01*
X2725559Y2374130D01*
X2724970Y2371645D01*
Y2369091D01*
X2725559Y2366606D01*
X2726705Y2364323D01*
X2728347Y2362367D01*
X2730396Y2360842D01*
X2732740Y2359830D01*
X2735256Y2359387D01*
X2737805Y2359535D01*
X2740252Y2360268D01*
X2742464Y2361545D01*
X2744322Y2363297D01*
X2745725Y2365431D01*
X2746599Y2367831D01*
X2746895Y2370368D01*
X2758395D02*
X2758254Y2372887D01*
X2757831Y2375375D01*
X2757133Y2377799D01*
X2756167Y2380130D01*
X2754947Y2382339D01*
X2753487Y2384397D01*
X2751805Y2386278D01*
X2749924Y2387959D01*
X2747866Y2389419D01*
X2745658Y2390640D01*
X2743327Y2391605D01*
X2740902Y2392304D01*
X2738415Y2392727D01*
X2735895Y2392868D01*
X2733376Y2392727D01*
X2730889Y2392304D01*
X2728464Y2391605D01*
X2726133Y2390640D01*
X2723925Y2389419D01*
X2721867Y2387959D01*
X2719985Y2386278D01*
X2718304Y2384397D01*
X2716844Y2382339D01*
X2715623Y2380130D01*
X2714658Y2377799D01*
X2713959Y2375375D01*
X2713537Y2372887D01*
X2713395Y2370368D01*
X2713537Y2367849D01*
X2713959Y2365361D01*
X2714658Y2362937D01*
X2715623Y2360606D01*
X2716844Y2358397D01*
X2718304Y2356340D01*
X2719985Y2354458D01*
X2721867Y2352777D01*
X2723925Y2351317D01*
X2726133Y2350096D01*
X2728464Y2349131D01*
X2730889Y2348432D01*
X2733376Y2348009D01*
X2735895Y2347868D01*
X2738415Y2348009D01*
X2740902Y2348432D01*
X2743327Y2349131D01*
X2745658Y2350096D01*
X2747866Y2351317D01*
X2749924Y2352777D01*
X2751805Y2354458D01*
X2753487Y2356340D01*
X2754947Y2358397D01*
X2756167Y2360606D01*
X2757133Y2362937D01*
X2757831Y2365361D01*
X2758254Y2367849D01*
X2758395Y2370368D01*
X2258395Y2370368D02*
X2258254Y2372887D01*
X2257831Y2375375D01*
X2257133Y2377799D01*
X2256167Y2380130D01*
X2254947Y2382339D01*
X2253487Y2384397D01*
X2251805Y2386278D01*
X2249924Y2387959D01*
X2247866Y2389419D01*
X2245658Y2390640D01*
X2243327Y2391605D01*
X2240902Y2392304D01*
X2238415Y2392727D01*
X2235895Y2392868D01*
X2233376Y2392727D01*
X2230889Y2392304D01*
X2228464Y2391605D01*
X2226133Y2390640D01*
X2223925Y2389419D01*
X2221867Y2387959D01*
X2219986Y2386278D01*
X2218304Y2384397D01*
X2216844Y2382339D01*
X2215624Y2380130D01*
X2214658Y2377799D01*
X2213960Y2375375D01*
X2213537Y2372887D01*
X2213395Y2370368D01*
X2213537Y2367849D01*
X2213960Y2365361D01*
X2214658Y2362937D01*
X2215624Y2360606D01*
X2216844Y2358397D01*
X2218304Y2356340D01*
X2219986Y2354458D01*
X2221867Y2352777D01*
X2223925Y2351317D01*
X2226133Y2350096D01*
X2228464Y2349131D01*
X2230889Y2348432D01*
X2233376Y2348009D01*
X2235895Y2347868D01*
X2238415Y2348009D01*
X2240902Y2348432D01*
X2243327Y2349131D01*
X2245658Y2350096D01*
X2247866Y2351317D01*
X2249924Y2352777D01*
X2251805Y2354458D01*
X2253487Y2356340D01*
X2254947Y2358397D01*
X2256167Y2360606D01*
X2257133Y2362937D01*
X2257831Y2365361D01*
X2258254Y2367849D01*
X2258395Y2370368D01*
X2246895Y2370368D02*
X2246599Y2372905D01*
X2245725Y2375305D01*
X2244322Y2377439D01*
X2242464Y2379191D01*
X2240252Y2380468D01*
X2237805Y2381201D01*
X2235256Y2381349D01*
X2232740Y2380906D01*
X2230395Y2379894D01*
X2228347Y2378369D01*
X2226705Y2376413D01*
X2225559Y2374130D01*
X2224970Y2371645D01*
Y2369091D01*
X2225559Y2366606D01*
X2226705Y2364323D01*
X2228347Y2362367D01*
X2230395Y2360842D01*
X2232740Y2359830D01*
X2235256Y2359387D01*
X2237805Y2359535D01*
X2240252Y2360268D01*
X2242464Y2361545D01*
X2244322Y2363297D01*
X2245725Y2365431D01*
X2246599Y2367831D01*
X2246895Y2370368D01*
X2258395Y2115368D02*
X2258254Y2117887D01*
X2257831Y2120375D01*
X2257133Y2122799D01*
X2256167Y2125130D01*
X2254947Y2127339D01*
X2253487Y2129397D01*
X2251805Y2131278D01*
X2249924Y2132959D01*
X2247866Y2134419D01*
X2245658Y2135640D01*
X2243327Y2136605D01*
X2240902Y2137304D01*
X2238415Y2137727D01*
X2235895Y2137868D01*
X2233376Y2137727D01*
X2230889Y2137304D01*
X2228464Y2136605D01*
X2226133Y2135640D01*
X2223925Y2134419D01*
X2221867Y2132959D01*
X2219986Y2131278D01*
X2218304Y2129397D01*
X2216844Y2127339D01*
X2215624Y2125130D01*
X2214658Y2122799D01*
X2213960Y2120375D01*
X2213537Y2117887D01*
X2213395Y2115368D01*
X2213537Y2112849D01*
X2213960Y2110361D01*
X2214658Y2107937D01*
X2215624Y2105606D01*
X2216844Y2103397D01*
X2218304Y2101340D01*
X2219986Y2099458D01*
X2221867Y2097777D01*
X2223925Y2096317D01*
X2226133Y2095096D01*
X2228464Y2094131D01*
X2230889Y2093432D01*
X2233376Y2093009D01*
X2235895Y2092868D01*
X2238415Y2093009D01*
X2240902Y2093432D01*
X2243327Y2094131D01*
X2245658Y2095096D01*
X2247866Y2096317D01*
X2249924Y2097777D01*
X2251805Y2099458D01*
X2253487Y2101340D01*
X2254947Y2103397D01*
X2256167Y2105606D01*
X2257133Y2107937D01*
X2257831Y2110361D01*
X2258254Y2112849D01*
X2258395Y2115368D01*
X2246895Y2115368D02*
X2246599Y2117905D01*
X2245725Y2120305D01*
X2244322Y2122439D01*
X2242464Y2124191D01*
X2240252Y2125468D01*
X2237805Y2126201D01*
X2235256Y2126349D01*
X2232740Y2125906D01*
X2230395Y2124894D01*
X2228347Y2123369D01*
X2226705Y2121413D01*
X2225559Y2119130D01*
X2224970Y2116645D01*
Y2114091D01*
X2225559Y2111606D01*
X2226705Y2109323D01*
X2228347Y2107367D01*
X2230395Y2105842D01*
X2232740Y2104830D01*
X2235256Y2104387D01*
X2237805Y2104535D01*
X2240252Y2105268D01*
X2242464Y2106545D01*
X2244322Y2108297D01*
X2245725Y2110431D01*
X2246599Y2112831D01*
X2246895Y2115368D01*
X2758395D02*
X2758254Y2117887D01*
X2757831Y2120375D01*
X2757133Y2122799D01*
X2756167Y2125130D01*
X2754947Y2127339D01*
X2753487Y2129397D01*
X2751805Y2131278D01*
X2749924Y2132959D01*
X2747866Y2134419D01*
X2745658Y2135640D01*
X2743327Y2136605D01*
X2740902Y2137304D01*
X2738415Y2137727D01*
X2735895Y2137868D01*
X2733376Y2137727D01*
X2730889Y2137304D01*
X2728464Y2136605D01*
X2726133Y2135640D01*
X2723925Y2134419D01*
X2721867Y2132959D01*
X2719985Y2131278D01*
X2718304Y2129397D01*
X2716844Y2127339D01*
X2715623Y2125130D01*
X2714658Y2122799D01*
X2713959Y2120375D01*
X2713537Y2117887D01*
X2713395Y2115368D01*
X2713537Y2112849D01*
X2713959Y2110361D01*
X2714658Y2107937D01*
X2715623Y2105606D01*
X2716844Y2103397D01*
X2718304Y2101340D01*
X2719985Y2099458D01*
X2721867Y2097777D01*
X2723925Y2096317D01*
X2726133Y2095096D01*
X2728464Y2094131D01*
X2730889Y2093432D01*
X2733376Y2093009D01*
X2735895Y2092868D01*
X2738415Y2093009D01*
X2740902Y2093432D01*
X2743327Y2094131D01*
X2745658Y2095096D01*
X2747866Y2096317D01*
X2749924Y2097777D01*
X2751805Y2099458D01*
X2753487Y2101340D01*
X2754947Y2103397D01*
X2756167Y2105606D01*
X2757133Y2107937D01*
X2757831Y2110361D01*
X2758254Y2112849D01*
X2758395Y2115368D01*
X2746895Y2115368D02*
X2746599Y2117905D01*
X2745725Y2120305D01*
X2744322Y2122439D01*
X2742464Y2124191D01*
X2740252Y2125468D01*
X2737805Y2126201D01*
X2735256Y2126349D01*
X2732740Y2125906D01*
X2730396Y2124894D01*
X2728347Y2123369D01*
X2726705Y2121413D01*
X2725559Y2119130D01*
X2724970Y2116645D01*
Y2114091D01*
X2725559Y2111606D01*
X2726705Y2109323D01*
X2728347Y2107367D01*
X2730396Y2105842D01*
X2732740Y2104830D01*
X2735256Y2104387D01*
X2737805Y2104535D01*
X2740252Y2105268D01*
X2742464Y2106545D01*
X2744322Y2108297D01*
X2745725Y2110431D01*
X2746599Y2112831D01*
X2746895Y2115368D01*
X2238495Y2277868D02*
X2237765Y2280355D01*
X2235806Y2282052D01*
X2233241Y2282421D01*
X2230883Y2281344D01*
X2229482Y2279164D01*
Y2276572D01*
X2230883Y2274392D01*
X2233241Y2273315D01*
X2235806Y2273684D01*
X2237765Y2275381D01*
X2238495Y2277868D01*
X2238495Y2252868D02*
X2237765Y2255355D01*
X2235806Y2257052D01*
X2233241Y2257421D01*
X2230883Y2256344D01*
X2229482Y2254164D01*
Y2251572D01*
X2230883Y2249392D01*
X2233241Y2248315D01*
X2235806Y2248684D01*
X2237765Y2250381D01*
X2238495Y2252868D01*
Y2232868D02*
X2237765Y2235355D01*
X2235806Y2237052D01*
X2233241Y2237421D01*
X2230883Y2236344D01*
X2229482Y2234164D01*
Y2231572D01*
X2230883Y2229392D01*
X2233241Y2228315D01*
X2235806Y2228684D01*
X2237765Y2230381D01*
X2238495Y2232868D01*
Y2207868D02*
X2237765Y2210355D01*
X2235806Y2212052D01*
X2233241Y2212421D01*
X2230883Y2211344D01*
X2229482Y2209164D01*
Y2206572D01*
X2230883Y2204392D01*
X2233241Y2203315D01*
X2235806Y2203684D01*
X2237765Y2205381D01*
X2238495Y2207868D01*
X2224895Y2291868D02*
X2227368Y2292260D01*
X2229598Y2293396D01*
X2231367Y2295166D01*
X2232504Y2297396D01*
X2232895Y2299868D01*
X2232504Y2302340D01*
X2231367Y2304570D01*
X2229598Y2306340D01*
X2227368Y2307477D01*
X2224895Y2307868D01*
X2200895Y2193868D02*
X2198423Y2193477D01*
X2196193Y2192340D01*
X2194423Y2190570D01*
X2193287Y2188340D01*
X2192895Y2185868D01*
X2193287Y2183396D01*
X2194423Y2181166D01*
X2196193Y2179396D01*
X2198423Y2178260D01*
X2200895Y2177868D01*
X2205395Y2190868D02*
X2202895Y2190198D01*
X2201065Y2188368D01*
X2200395Y2185868D01*
X2201065Y2183368D01*
X2202895Y2181538D01*
X2205395Y2180868D01*
X2224895Y2177868D02*
X2227368Y2178260D01*
X2229598Y2179396D01*
X2231367Y2181166D01*
X2232504Y2183396D01*
X2232895Y2185868D01*
X2232504Y2188340D01*
X2231367Y2190570D01*
X2229598Y2192340D01*
X2227368Y2193477D01*
X2224895Y2193868D01*
X2220395Y2180868D02*
X2222895Y2181538D01*
X2224725Y2183368D01*
X2225395Y2185868D01*
X2224725Y2188368D01*
X2222895Y2190198D01*
X2220395Y2190868D01*
X2200895Y2307868D02*
X2198423Y2307477D01*
X2196193Y2306340D01*
X2194423Y2304570D01*
X2193287Y2302340D01*
X2192895Y2299868D01*
X2193287Y2297396D01*
X2194423Y2295166D01*
X2196193Y2293396D01*
X2198423Y2292260D01*
X2200895Y2291868D01*
X2205395Y2304868D02*
X2202895Y2304198D01*
X2201065Y2302368D01*
X2200395Y2299868D01*
X2201065Y2297368D01*
X2202895Y2295538D01*
X2205395Y2294868D01*
X2220395D02*
X2222895Y2295538D01*
X2224725Y2297368D01*
X2225395Y2299868D01*
X2224725Y2302368D01*
X2222895Y2304198D01*
X2220395Y2304868D01*
X2217433Y2265368D02*
X2216713Y2267821D01*
X2214780Y2269496D01*
X2212250Y2269859D01*
X2209924Y2268797D01*
X2208542Y2266646D01*
Y2264090D01*
X2209924Y2261939D01*
X2212250Y2260877D01*
X2214780Y2261241D01*
X2216713Y2262915D01*
X2217433Y2265368D01*
Y2220368D02*
X2216713Y2222821D01*
X2214780Y2224496D01*
X2212250Y2224859D01*
X2209924Y2223797D01*
X2208542Y2221646D01*
Y2219090D01*
X2209924Y2216939D01*
X2212250Y2215877D01*
X2214780Y2216241D01*
X2216713Y2217915D01*
X2217433Y2220368D01*
X2708695Y2308368D02*
X2847695D01*
X2708695Y2177368D02*
Y2308368D01*
Y2177368D02*
X2847695D01*
Y2308368D01*
X2716195Y2185368D02*
X2727195D01*
X2778695Y2157368D02*
X2796695D01*
X2778695Y2160368D02*
X2796695D01*
X2778695Y2168368D02*
X2796695D01*
X2778695Y2171368D02*
X2796695D01*
X2716195Y2172368D02*
X2727195D01*
X2716195Y2175368D02*
X2727195D01*
X2716195Y2182368D02*
X2727195D01*
X2716195Y2300368D02*
X2727195D01*
X2716195Y2303368D02*
X2727195D01*
X2716195Y2310368D02*
X2727195D01*
X2716195Y2313368D02*
X2727195D01*
X2778695Y2314368D02*
X2796695D01*
X2778695Y2317368D02*
X2796695D01*
X2778695Y2325368D02*
X2796695D01*
X2778695Y2328368D02*
X2796695D01*
X2711197Y2310990D02*
X2711643Y2311437D01*
X2707148Y2206136D02*
X2709488Y2208476D01*
X2222895Y2182868D02*
Y2302868D01*
X2038994D02*
X2222895D01*
X2036395Y2184368D02*
Y2301368D01*
X2038994Y2302868D01*
Y2182868D02*
X2222895D01*
X2036395Y2184368D02*
X2038994Y2182868D01*
X2205395Y2304868D02*
X2220395D01*
X2200895Y2177868D02*
X2224895D01*
X2205395Y2190868D02*
X2220395D01*
X2200895Y2193868D02*
X2224895D01*
X2200895Y2291868D02*
X2224895D01*
X2205395Y2294868D02*
X2220395D01*
X2200895Y2307868D02*
X2224895D01*
X2205395Y2180868D02*
X2220395D01*
X2798227Y1735256D02*
Y1723828D01*
Y1735256D02*
X2802036D01*
X2803668Y1734712D01*
X2804756Y1733623D01*
X2805301Y1732535D01*
X2805845Y1730903D01*
Y1728182D01*
X2805301Y1726549D01*
X2804756Y1725461D01*
X2803668Y1724372D01*
X2802036Y1723828D01*
X2798227D01*
X2817109D02*
X2812756Y1735256D01*
X2808402Y1723828D01*
X2810035Y1727637D02*
X2815477D01*
X2823585Y1735256D02*
Y1723828D01*
X2819776Y1735256D02*
X2827394D01*
X2835829D02*
X2828754D01*
Y1723828D01*
X2835829D01*
X2828754Y1729814D02*
X2833108D01*
X2838277Y1731447D02*
X2837733Y1730903D01*
X2838277Y1730358D01*
X2838822Y1730903D01*
X2838277Y1731447D01*
Y1724917D02*
X2837733Y1724372D01*
X2838277Y1723828D01*
X2838822Y1724372D01*
X2838277Y1724917D01*
X2680752Y1735256D02*
Y1723828D01*
Y1735256D02*
X2685649D01*
X2687281Y1734712D01*
X2687826Y1734167D01*
X2688370Y1733079D01*
Y1731991D01*
X2687826Y1730903D01*
X2687281Y1730358D01*
X2685649Y1729814D01*
X2680752D01*
X2684561D02*
X2688370Y1723828D01*
X2698002Y1735256D02*
X2690927D01*
Y1723828D01*
X2698002D01*
X2690927Y1729814D02*
X2695281D01*
X2699906Y1735256D02*
X2704260Y1723828D01*
X2708613Y1735256D02*
X2704260Y1723828D01*
X2710627Y1731447D02*
X2710082Y1730903D01*
X2710627Y1730358D01*
X2711171Y1730903D01*
X2710627Y1731447D01*
Y1724917D02*
X2710082Y1724372D01*
X2710627Y1723828D01*
X2711171Y1724372D01*
X2710627Y1724917D01*
X2010360Y1820777D02*
X2015258D01*
X2016891Y1821321D01*
X2017435Y1821865D01*
X2017979Y1822954D01*
Y1824586D01*
X2017435Y1825674D01*
X2016891Y1826219D01*
X2015258Y1826763D01*
X2010360D01*
Y1815335D01*
X2020536Y1826763D02*
Y1815335D01*
Y1826763D02*
X2025434D01*
X2027066Y1826219D01*
X2027611Y1825674D01*
X2028155Y1824586D01*
Y1823498D01*
X2027611Y1822410D01*
X2027066Y1821865D01*
X2025434Y1821321D01*
X2020536D01*
X2024346D02*
X2028155Y1815335D01*
X2030712Y1826763D02*
Y1815335D01*
X2036372Y1826763D02*
X2035283Y1826219D01*
X2034195Y1825130D01*
X2033651Y1824042D01*
X2033107Y1822410D01*
Y1819689D01*
X2033651Y1818056D01*
X2034195Y1816968D01*
X2035283Y1815880D01*
X2036372Y1815335D01*
X2038548D01*
X2039637Y1815880D01*
X2040725Y1816968D01*
X2041269Y1818056D01*
X2041813Y1819689D01*
Y1822410D01*
X2041269Y1824042D01*
X2040725Y1825130D01*
X2039637Y1826219D01*
X2038548Y1826763D01*
X2036372D01*
X2044480D02*
Y1815335D01*
Y1826763D02*
X2049377D01*
X2051010Y1826219D01*
X2051554Y1825674D01*
X2052098Y1824586D01*
Y1823498D01*
X2051554Y1822410D01*
X2051010Y1821865D01*
X2049377Y1821321D01*
X2044480D01*
X2048289D02*
X2052098Y1815335D01*
X2067444Y1826763D02*
Y1815335D01*
X2063635Y1826763D02*
X2071253D01*
X2075878D02*
X2074790Y1826219D01*
X2073702Y1825130D01*
X2073158Y1824042D01*
X2072613Y1822410D01*
Y1819689D01*
X2073158Y1818056D01*
X2073702Y1816968D01*
X2074790Y1815880D01*
X2075878Y1815335D01*
X2078055D01*
X2079143Y1815880D01*
X2080232Y1816968D01*
X2080776Y1818056D01*
X2081320Y1819689D01*
Y1822410D01*
X2080776Y1824042D01*
X2080232Y1825130D01*
X2079143Y1826219D01*
X2078055Y1826763D01*
X2075878D01*
X2092965D02*
Y1815335D01*
Y1826763D02*
X2096774D01*
X2098407Y1826219D01*
X2099495Y1825130D01*
X2100040Y1824042D01*
X2100584Y1822410D01*
Y1819689D01*
X2100040Y1818056D01*
X2099495Y1816968D01*
X2098407Y1815880D01*
X2096774Y1815335D01*
X2092965D01*
X2111848D02*
X2107495Y1826763D01*
X2103141Y1815335D01*
X2104774Y1819144D02*
X2110215D01*
X2118324Y1826763D02*
Y1815335D01*
X2114514Y1826763D02*
X2122133D01*
X2130567D02*
X2123493D01*
Y1815335D01*
X2130567D01*
X2123493Y1821321D02*
X2127847D01*
X2133016Y1822954D02*
X2132472Y1822410D01*
X2133016Y1821865D01*
X2133560Y1822410D01*
X2133016Y1822954D01*
Y1816424D02*
X2132472Y1815880D01*
X2133016Y1815335D01*
X2133560Y1815880D01*
X2133016Y1816424D01*
X2010360Y1724765D02*
X2015258D01*
X2016891Y1725309D01*
X2017435Y1725853D01*
X2017979Y1726942D01*
Y1728574D01*
X2017435Y1729662D01*
X2016891Y1730207D01*
X2015258Y1730751D01*
X2010360D01*
Y1719323D01*
X2020536Y1730751D02*
Y1719323D01*
Y1730751D02*
X2025434D01*
X2027066Y1730207D01*
X2027611Y1729662D01*
X2028155Y1728574D01*
Y1727486D01*
X2027611Y1726398D01*
X2027066Y1725853D01*
X2025434Y1725309D01*
X2020536D01*
X2024346D02*
X2028155Y1719323D01*
X2030712Y1730751D02*
Y1719323D01*
X2036372Y1730751D02*
X2035283Y1730207D01*
X2034195Y1729118D01*
X2033651Y1728030D01*
X2033107Y1726398D01*
Y1723677D01*
X2033651Y1722044D01*
X2034195Y1720956D01*
X2035283Y1719868D01*
X2036372Y1719323D01*
X2038548D01*
X2039637Y1719868D01*
X2040725Y1720956D01*
X2041269Y1722044D01*
X2041813Y1723677D01*
Y1726398D01*
X2041269Y1728030D01*
X2040725Y1729118D01*
X2039637Y1730207D01*
X2038548Y1730751D01*
X2036372D01*
X2044480D02*
Y1719323D01*
Y1730751D02*
X2049377D01*
X2051010Y1730207D01*
X2051554Y1729662D01*
X2052098Y1728574D01*
Y1727486D01*
X2051554Y1726398D01*
X2051010Y1725853D01*
X2049377Y1725309D01*
X2044480D01*
X2048289D02*
X2052098Y1719323D01*
X2067444Y1730751D02*
Y1719323D01*
X2063635Y1730751D02*
X2071253D01*
X2075878D02*
X2074790Y1730207D01*
X2073702Y1729118D01*
X2073158Y1728030D01*
X2072613Y1726398D01*
Y1723677D01*
X2073158Y1722044D01*
X2073702Y1720956D01*
X2074790Y1719868D01*
X2075878Y1719323D01*
X2078055D01*
X2079143Y1719868D01*
X2080232Y1720956D01*
X2080776Y1722044D01*
X2081320Y1723677D01*
Y1726398D01*
X2080776Y1728030D01*
X2080232Y1729118D01*
X2079143Y1730207D01*
X2078055Y1730751D01*
X2075878D01*
X2092965D02*
Y1719323D01*
Y1730751D02*
X2096774D01*
X2098407Y1730207D01*
X2099495Y1729118D01*
X2100040Y1728030D01*
X2100584Y1726398D01*
Y1723677D01*
X2100040Y1722044D01*
X2099495Y1720956D01*
X2098407Y1719868D01*
X2096774Y1719323D01*
X2092965D01*
X2111848D02*
X2107495Y1730751D01*
X2103141Y1719323D01*
X2104774Y1723132D02*
X2110215D01*
X2118324Y1730751D02*
Y1719323D01*
X2114514Y1730751D02*
X2122133D01*
X2130567D02*
X2123493D01*
Y1719323D01*
X2130567D01*
X2123493Y1725309D02*
X2127847D01*
X2133016Y1726942D02*
X2132472Y1726398D01*
X2133016Y1725853D01*
X2133560Y1726398D01*
X2133016Y1726942D01*
Y1720412D02*
X2132472Y1719868D01*
X2133016Y1719323D01*
X2133560Y1719868D01*
X2133016Y1720412D01*
X2478186Y1664771D02*
Y1653343D01*
X2484717D01*
X2494675D02*
X2490322Y1664771D01*
X2485968Y1653343D01*
X2487601Y1657153D02*
X2493042D01*
X2497341Y1664771D02*
X2501695Y1659329D01*
Y1653343D01*
X2506048Y1664771D02*
X2501695Y1659329D01*
X2514591Y1664771D02*
X2507517D01*
Y1653343D01*
X2514591D01*
X2507517Y1659329D02*
X2511871D01*
X2516496Y1664771D02*
Y1653343D01*
Y1664771D02*
X2521394D01*
X2523026Y1664227D01*
X2523570Y1663683D01*
X2524114Y1662594D01*
Y1661506D01*
X2523570Y1660417D01*
X2523026Y1659873D01*
X2521394Y1659329D01*
X2516496D01*
X2520305D02*
X2524114Y1653343D01*
X2527216Y1660962D02*
X2526672Y1660417D01*
X2527216Y1659873D01*
X2527760Y1660417D01*
X2527216Y1660962D01*
Y1654432D02*
X2526672Y1653887D01*
X2527216Y1653343D01*
X2527760Y1653887D01*
X2527216Y1654432D01*
X2017901Y1852731D02*
X2010827D01*
Y1841303D01*
X2017901D01*
X2010827Y1847289D02*
X2015180D01*
X2019805Y1852731D02*
Y1841303D01*
Y1852731D02*
X2027424Y1841303D01*
Y1852731D02*
Y1841303D01*
X2038742Y1850010D02*
X2038198Y1851098D01*
X2037110Y1852187D01*
X2036022Y1852731D01*
X2033845D01*
X2032757Y1852187D01*
X2031668Y1851098D01*
X2031124Y1850010D01*
X2030580Y1848378D01*
Y1845657D01*
X2031124Y1844024D01*
X2031668Y1842936D01*
X2032757Y1841847D01*
X2033845Y1841303D01*
X2036022D01*
X2037110Y1841847D01*
X2038198Y1842936D01*
X2038742Y1844024D01*
Y1845657D01*
X2036022D02*
X2038742D01*
X2041354Y1852731D02*
Y1841303D01*
X2043749Y1852731D02*
Y1841303D01*
Y1852731D02*
X2051367Y1841303D01*
Y1852731D02*
Y1841303D01*
X2061598Y1852731D02*
X2054523D01*
Y1841303D01*
X2061598D01*
X2054523Y1847289D02*
X2058877D01*
X2070576Y1852731D02*
X2063502D01*
Y1841303D01*
X2070576D01*
X2063502Y1847289D02*
X2067856D01*
X2072481Y1852731D02*
Y1841303D01*
Y1852731D02*
X2077379D01*
X2079011Y1852187D01*
X2079555Y1851642D01*
X2080099Y1850554D01*
Y1849466D01*
X2079555Y1848378D01*
X2079011Y1847833D01*
X2077379Y1847289D01*
X2072481D01*
X2076290D02*
X2080099Y1841303D01*
X2083201Y1848922D02*
X2082657Y1848378D01*
X2083201Y1847833D01*
X2083745Y1848378D01*
X2083201Y1848922D01*
Y1842392D02*
X2082657Y1841847D01*
X2083201Y1841303D01*
X2083745Y1841847D01*
X2083201Y1842392D01*
X2239427Y1729270D02*
X2244324D01*
X2245957Y1729814D01*
X2246501Y1730358D01*
X2247045Y1731447D01*
Y1733079D01*
X2246501Y1734167D01*
X2245957Y1734712D01*
X2244324Y1735256D01*
X2239427D01*
Y1723828D01*
X2258309D02*
X2253956Y1735256D01*
X2249603Y1723828D01*
X2251235Y1727637D02*
X2256677D01*
X2260976Y1735256D02*
Y1723828D01*
Y1735256D02*
X2265873D01*
X2267506Y1734712D01*
X2268050Y1734167D01*
X2268594Y1733079D01*
Y1731991D01*
X2268050Y1730902D01*
X2267506Y1730358D01*
X2265873Y1729814D01*
X2260976D01*
X2264785D02*
X2268594Y1723828D01*
X2274961Y1735256D02*
Y1723828D01*
X2271151Y1735256D02*
X2278770D01*
X2289109D02*
Y1723828D01*
Y1735256D02*
X2296727Y1723828D01*
Y1735256D02*
Y1723828D01*
X2303149Y1735256D02*
X2302060Y1734712D01*
X2300972Y1733623D01*
X2300428Y1732535D01*
X2299884Y1730902D01*
Y1728182D01*
X2300428Y1726549D01*
X2300972Y1725461D01*
X2302060Y1724372D01*
X2303149Y1723828D01*
X2305325D01*
X2306414Y1724372D01*
X2307502Y1725461D01*
X2308046Y1726549D01*
X2308590Y1728182D01*
Y1730902D01*
X2308046Y1732535D01*
X2307502Y1733623D01*
X2306414Y1734712D01*
X2305325Y1735256D01*
X2303149D01*
X2311801Y1731447D02*
X2311257Y1730902D01*
X2311801Y1730358D01*
X2312345Y1730902D01*
X2311801Y1731447D01*
Y1724917D02*
X2311257Y1724372D01*
X2311801Y1723828D01*
X2312345Y1724372D01*
X2311801Y1724917D01*
X2240061Y1855906D02*
Y1844478D01*
X2236252Y1855906D02*
X2243870D01*
X2245230D02*
Y1844478D01*
X2251434Y1855906D02*
Y1844478D01*
X2247625Y1855906D02*
X2255243D01*
X2256604D02*
Y1844478D01*
X2263134D01*
X2271459Y1855906D02*
X2264385D01*
Y1844478D01*
X2271459D01*
X2264385Y1850464D02*
X2268739D01*
X2273908Y1852097D02*
X2273364Y1851552D01*
X2273908Y1851008D01*
X2274452Y1851552D01*
X2273908Y1852097D01*
Y1845567D02*
X2273364Y1845022D01*
X2273908Y1844478D01*
X2274452Y1845022D01*
X2273908Y1845567D01*
X2017901Y1756211D02*
X2010827D01*
Y1744783D01*
X2017901D01*
X2010827Y1750769D02*
X2015180D01*
X2019805Y1756211D02*
Y1744783D01*
Y1756211D02*
X2027424Y1744783D01*
Y1756211D02*
Y1744783D01*
X2038742Y1753490D02*
X2038198Y1754578D01*
X2037110Y1755667D01*
X2036022Y1756211D01*
X2033845D01*
X2032757Y1755667D01*
X2031668Y1754578D01*
X2031124Y1753490D01*
X2030580Y1751857D01*
Y1749137D01*
X2031124Y1747504D01*
X2031668Y1746416D01*
X2032757Y1745327D01*
X2033845Y1744783D01*
X2036022D01*
X2037110Y1745327D01*
X2038198Y1746416D01*
X2038742Y1747504D01*
Y1749137D01*
X2036022D02*
X2038742D01*
X2041354Y1756211D02*
Y1744783D01*
X2043749Y1756211D02*
Y1744783D01*
Y1756211D02*
X2051367Y1744783D01*
Y1756211D02*
Y1744783D01*
X2061598Y1756211D02*
X2054523D01*
Y1744783D01*
X2061598D01*
X2054523Y1750769D02*
X2058877D01*
X2070576Y1756211D02*
X2063502D01*
Y1744783D01*
X2070576D01*
X2063502Y1750769D02*
X2067856D01*
X2072481Y1756211D02*
Y1744783D01*
Y1756211D02*
X2077379D01*
X2079011Y1755667D01*
X2079555Y1755123D01*
X2080099Y1754034D01*
Y1752946D01*
X2079555Y1751857D01*
X2079011Y1751313D01*
X2077379Y1750769D01*
X2072481D01*
X2076290D02*
X2080099Y1744783D01*
X2083201Y1752402D02*
X2082657Y1751857D01*
X2083201Y1751313D01*
X2083745Y1751857D01*
X2083201Y1752402D01*
Y1745872D02*
X2082657Y1745327D01*
X2083201Y1744783D01*
X2083745Y1745327D01*
X2083201Y1745872D01*
X2010827Y1664771D02*
Y1653343D01*
Y1664771D02*
X2017901D01*
X2010827Y1659329D02*
X2015180D01*
X2019207Y1664771D02*
Y1653343D01*
X2021601Y1664771D02*
Y1653343D01*
X2028131D01*
X2036457Y1664771D02*
X2029383D01*
Y1653343D01*
X2036457D01*
X2029383Y1659329D02*
X2033736D01*
X2047340Y1664771D02*
Y1653343D01*
Y1664771D02*
X2054959Y1653343D01*
Y1664771D02*
Y1653343D01*
X2066822D02*
X2062468Y1664771D01*
X2058115Y1653343D01*
X2059747Y1657153D02*
X2065189D01*
X2069488Y1664771D02*
Y1653343D01*
Y1664771D02*
X2073841Y1653343D01*
X2078195Y1664771D02*
X2073841Y1653343D01*
X2078195Y1664771D02*
Y1653343D01*
X2088534Y1664771D02*
X2081460D01*
Y1653343D01*
X2088534D01*
X2081460Y1659329D02*
X2085813D01*
X2090983Y1660962D02*
X2090439Y1660417D01*
X2090983Y1659873D01*
X2091527Y1660417D01*
X2090983Y1660962D01*
Y1654432D02*
X2090439Y1653887D01*
X2090983Y1653343D01*
X2091527Y1653887D01*
X2090983Y1654432D01*
X2948629Y1662050D02*
X2948085Y1663138D01*
X2946996Y1664227D01*
X2945908Y1664771D01*
X2943732D01*
X2942643Y1664227D01*
X2941555Y1663138D01*
X2941011Y1662050D01*
X2940467Y1660417D01*
Y1657697D01*
X2941011Y1656064D01*
X2941555Y1654976D01*
X2942643Y1653887D01*
X2943732Y1653343D01*
X2945908D01*
X2946996Y1653887D01*
X2948085Y1654976D01*
X2948629Y1656064D01*
Y1657697D01*
X2945908D02*
X2948629D01*
X2958315Y1664771D02*
X2951241D01*
Y1653343D01*
X2958315D01*
X2951241Y1659329D02*
X2955594D01*
X2960220Y1664771D02*
Y1653343D01*
Y1664771D02*
X2965117D01*
X2966750Y1664227D01*
X2967294Y1663683D01*
X2967838Y1662594D01*
Y1661506D01*
X2967294Y1660417D01*
X2966750Y1659873D01*
X2965117Y1659329D01*
X2960220D01*
X2964029D02*
X2967838Y1653343D01*
X2970396Y1664771D02*
Y1653343D01*
Y1664771D02*
X2975293D01*
X2976926Y1664227D01*
X2977470Y1663683D01*
X2978014Y1662594D01*
Y1661506D01*
X2977470Y1660417D01*
X2976926Y1659873D01*
X2975293Y1659329D01*
X2970396D02*
X2975293D01*
X2976926Y1658785D01*
X2977470Y1658241D01*
X2978014Y1657153D01*
Y1655520D01*
X2977470Y1654432D01*
X2976926Y1653887D01*
X2975293Y1653343D01*
X2970396D01*
X2987646Y1664771D02*
X2980572D01*
Y1653343D01*
X2987646D01*
X2980572Y1659329D02*
X2984925D01*
X2989550Y1664771D02*
Y1653343D01*
Y1664771D02*
X2994448D01*
X2996081Y1664227D01*
X2996625Y1663683D01*
X2997169Y1662594D01*
Y1661506D01*
X2996625Y1660417D01*
X2996081Y1659873D01*
X2994448Y1659329D01*
X2989550D01*
X2993360D02*
X2997169Y1653343D01*
X3000271Y1660962D02*
X2999727Y1660417D01*
X3000271Y1659873D01*
X3000815Y1660417D01*
X3000271Y1660962D01*
Y1654432D02*
X2999727Y1653887D01*
X3000271Y1653343D01*
X3000815Y1653887D01*
X3000271Y1654432D01*
D50*
X2423831Y1836215D02*
Y1798123D01*
Y1836215D02*
X2449225Y1798123D01*
Y1836215D02*
Y1798123D01*
X2472443Y1836215D02*
Y1798123D01*
X2459746Y1836215D02*
X2485140D01*
X2489675D02*
Y1798123D01*
Y1836215D02*
X2502372D01*
X2507814Y1834401D01*
X2511442Y1830773D01*
X2513256Y1827146D01*
X2515070Y1821704D01*
Y1812634D01*
X2513256Y1807193D01*
X2511442Y1803565D01*
X2507814Y1799937D01*
X2502372Y1798123D01*
X2489675D01*
X2799138Y1866381D02*
Y1828289D01*
X2800952Y1866381D02*
Y1828289D01*
X2793696Y1866381D02*
X2811835D01*
X2817277Y1864567D01*
X2820905Y1860939D01*
X2822719Y1857312D01*
X2824533Y1851870D01*
Y1842800D01*
X2822719Y1837359D01*
X2820905Y1833731D01*
X2817277Y1830103D01*
X2811835Y1828289D01*
X2793696D01*
X2811835Y1866381D02*
X2815463Y1864567D01*
X2819091Y1860939D01*
X2820905Y1857312D01*
X2822719Y1851870D01*
Y1842800D01*
X2820905Y1837359D01*
X2819091Y1833731D01*
X2815463Y1830103D01*
X2811835Y1828289D01*
X2833239Y1866381D02*
X2845937Y1846428D01*
Y1828289D01*
X2835053Y1866381D02*
X2847751Y1846428D01*
Y1828289D01*
X2860448Y1866381D02*
X2847751Y1846428D01*
X2829612Y1866381D02*
X2840495D01*
X2853192D02*
X2864076D01*
X2840495Y1828289D02*
X2853192D01*
X2874233Y1866381D02*
Y1828289D01*
X2876047Y1866381D02*
X2897814Y1831917D01*
X2876047Y1862753D02*
X2897814Y1828289D01*
Y1866381D02*
Y1828289D01*
X2868792Y1866381D02*
X2876047D01*
X2892372D02*
X2903256D01*
X2868792Y1828289D02*
X2879675D01*
X2924297Y1866381D02*
X2911600Y1828289D01*
X2924297Y1866381D02*
X2936994Y1828289D01*
X2924297Y1860939D02*
X2935180Y1828289D01*
X2915227Y1839173D02*
X2931553D01*
X2907972Y1828289D02*
X2918855D01*
X2929739D02*
X2940622D01*
X2950961Y1866381D02*
Y1828289D01*
X2952775Y1866381D02*
Y1828289D01*
X2945520Y1866381D02*
X2967286D01*
X2972728Y1864567D01*
X2974542Y1862753D01*
X2976356Y1859126D01*
Y1853684D01*
X2974542Y1850056D01*
X2972728Y1848242D01*
X2967286Y1846428D01*
X2952775D01*
X2967286Y1866381D02*
X2970914Y1864567D01*
X2972728Y1862753D01*
X2974542Y1859126D01*
Y1853684D01*
X2972728Y1850056D01*
X2970914Y1848242D01*
X2967286Y1846428D01*
X2945520Y1828289D02*
X2958217D01*
X2997760Y1866381D02*
X2985063Y1828289D01*
X2997760Y1866381D02*
X3010457Y1828289D01*
X2997760Y1860939D02*
X3008643Y1828289D01*
X2988690Y1839173D02*
X3005016D01*
X2981435Y1828289D02*
X2992318D01*
X3003202D02*
X3014085D01*
X3044377Y1860939D02*
X3046191Y1855498D01*
Y1866381D01*
X3044377Y1860939D01*
X3040749Y1864567D01*
X3035308Y1866381D01*
X3031680D01*
X3026238Y1864567D01*
X3022610Y1860939D01*
X3020797Y1857312D01*
X3018983Y1851870D01*
Y1842800D01*
X3020797Y1837359D01*
X3022610Y1833731D01*
X3026238Y1830103D01*
X3031680Y1828289D01*
X3035308D01*
X3040749Y1830103D01*
X3044377Y1833731D01*
X3046191Y1837359D01*
X3031680Y1866381D02*
X3028052Y1864567D01*
X3024424Y1860939D01*
X3022610Y1857312D01*
X3020797Y1851870D01*
Y1842800D01*
X3022610Y1837359D01*
X3024424Y1833731D01*
X3028052Y1830103D01*
X3031680Y1828289D01*
X3057074Y1866381D02*
Y1828289D01*
X3058888Y1866381D02*
Y1828289D01*
X3082469Y1866381D02*
X3058888Y1842800D01*
X3067958Y1850056D02*
X3082469Y1828289D01*
X3066144Y1850056D02*
X3080655Y1828289D01*
X3051633Y1866381D02*
X3064330D01*
X3075213D02*
X3086097D01*
X3051633Y1828289D02*
X3064330D01*
X3075213D02*
X3086097D01*
M02*
