%FSLAX44Y44*%
%MOMM*%
G71*
G01*
G75*
%ADD10O,2.0320X0.3302*%
%ADD11R,0.8000X0.8000*%
%ADD12R,0.9144X0.9144*%
%ADD13R,1.2700X0.9144*%
%ADD14R,0.5600X0.8200*%
%ADD15C,0.2540*%
%ADD16C,0.5000*%
%ADD17C,0.3000*%
%ADD18C,0.2286*%
%ADD19C,2.2000*%
%ADD20O,1.1000X1.3000*%
%ADD21C,1.3000*%
%ADD22O,2.3000X1.3000*%
%ADD23O,3.2000X1.4000*%
%ADD24C,0.9000*%
%ADD25C,1.8000*%
%ADD26O,2.0000X1.6000*%
%ADD27O,4.0000X1.6000*%
%ADD28C,0.6000*%
%ADD29C,0.2032*%
%ADD30C,0.1500*%
%ADD31C,0.5000*%
%ADD32C,0.1500*%
%ADD33C,0.1500*%
%ADD34C,0.1000*%
%ADD35C,0.1524*%
%ADD36C,0.1270*%
%ADD37O,2.2352X0.5334*%
%ADD38R,1.0032X1.0032*%
%ADD39R,1.1176X1.1176*%
%ADD40R,1.4732X1.1176*%
%ADD41R,0.7632X1.0232*%
%ADD42O,1.3032X1.5032*%
%ADD43C,1.5032*%
%ADD44O,2.5032X1.5032*%
%ADD45O,3.4032X1.6032*%
%ADD46C,1.1032*%
%ADD47C,2.0032*%
%ADD48O,2.2032X1.8032*%
%ADD49O,4.2032X1.8032*%
%ADD50C,0.3048*%
D19*
X2235896Y2370368D02*
D03*
X2735895D02*
D03*
Y2115368D02*
D03*
X2235896D02*
D03*
D20*
X2727695Y2207868D02*
D03*
X2727694Y2232868D02*
D03*
X2727695Y2252868D02*
D03*
Y2277868D02*
D03*
D21*
X2712695Y2282868D02*
D03*
Y2262868D02*
D03*
Y2242868D02*
D03*
Y2222868D02*
D03*
Y2202868D02*
D03*
D22*
X2721649Y2178782D02*
D03*
Y2306798D02*
D03*
D23*
X2787689Y2164304D02*
D03*
Y2321530D02*
D03*
D24*
X2212895Y2265368D02*
D03*
X2212896Y2220368D02*
D03*
D25*
X2233896Y2277868D02*
D03*
Y2207868D02*
D03*
D26*
Y2252868D02*
D03*
Y2232868D02*
D03*
D27*
X2212911Y2185871D02*
D03*
Y2299871D02*
D03*
M02*
