%FSLAX44Y44*%
%MOMM*%
G71*
G01*
G75*
%ADD10O,2.0320X0.3302*%
%ADD11R,0.8000X0.8000*%
%ADD12R,0.9144X0.9144*%
%ADD13R,1.2700X0.9144*%
%ADD14R,0.5600X0.8200*%
%ADD15C,0.2540*%
%ADD16C,0.5000*%
%ADD17C,0.3000*%
%ADD18C,0.2286*%
%ADD19C,2.2000*%
%ADD20O,1.1000X1.3000*%
%ADD21C,1.3000*%
%ADD22O,2.3000X1.3000*%
%ADD23O,3.2000X1.4000*%
%ADD24C,0.9000*%
%ADD25C,1.8000*%
%ADD26O,2.0000X1.6000*%
%ADD27O,4.0000X1.6000*%
%ADD28C,0.6000*%
%ADD29C,0.2032*%
%ADD30C,0.1500*%
%ADD31C,0.5000*%
%ADD32C,0.1500*%
%ADD33C,0.1500*%
%ADD34C,0.1000*%
%ADD35C,0.1524*%
%ADD36C,0.1270*%
D18*
X3024201Y1660123D02*
X3020393Y1663932D01*
X3012775D01*
X3008966Y1660123D01*
Y1644888D01*
X3012775Y1641079D01*
X3020393D01*
X3024201Y1644888D01*
Y1652506D01*
X3016584D01*
X3031819Y1663932D02*
X3047054D01*
X3039437D01*
Y1641079D01*
X3066098Y1663932D02*
X3058481D01*
X3054672Y1660123D01*
Y1644888D01*
X3058481Y1641079D01*
X3066098D01*
X3069907Y1644888D01*
Y1660123D01*
X3066098Y1663932D01*
X2575388Y1667386D02*
X2590623D01*
X2583006D01*
Y1644534D01*
X2602050D02*
X2609667D01*
X2613476Y1648342D01*
Y1655960D01*
X2609667Y1659769D01*
X2602050D01*
X2598241Y1655960D01*
Y1648342D01*
X2602050Y1644534D01*
X2621094Y1636916D02*
Y1659769D01*
X2632520D01*
X2636329Y1655960D01*
Y1648342D01*
X2632520Y1644534D01*
X2621094D01*
X2655373Y1667386D02*
X2647755D01*
X2643946Y1663578D01*
Y1648342D01*
X2647755Y1644534D01*
X2655373D01*
X2659181Y1648342D01*
Y1663578D01*
X2655373Y1667386D01*
X2666799Y1659769D02*
X2674417Y1644534D01*
X2682034Y1659769D01*
X2701078Y1644534D02*
X2693460D01*
X2689651Y1648342D01*
Y1655960D01*
X2693460Y1659769D01*
X2701078D01*
X2704886Y1655960D01*
Y1652151D01*
X2689651D01*
X2712504Y1659769D02*
Y1644534D01*
Y1652151D01*
X2716313Y1655960D01*
X2720121Y1659769D01*
X2723930D01*
X2735357Y1644534D02*
X2742974D01*
X2739165D01*
Y1667386D01*
X2735357D01*
X2758209Y1659769D02*
X2765827D01*
X2769636Y1655960D01*
Y1644534D01*
X2758209D01*
X2754401Y1648342D01*
X2758209Y1652151D01*
X2769636D01*
X2777253Y1659769D02*
Y1648342D01*
X2781062Y1644534D01*
X2792488D01*
Y1640725D01*
X2788680Y1636916D01*
X2784871D01*
X2792488Y1644534D02*
Y1659769D01*
D30*
X2446501Y2183671D02*
X2446018Y2186101D01*
X2444642Y2188161D01*
X2442581Y2189538D01*
X2440151Y2190021D01*
X2437721Y2189538D01*
X2435661Y2188161D01*
X2434285Y2186101D01*
X2433801Y2183671D01*
X2472891D02*
Y2186211D01*
X2472876Y2279606D02*
Y2282146D01*
D31*
X2489586Y2191221D02*
D03*
D32*
X2407011Y2183671D02*
X2433801D01*
X2446501D02*
X2472891D01*
X2406996Y2282146D02*
X2472876D01*
X2269398Y2209697D02*
Y2204366D01*
Y2235097D02*
Y2229766D01*
Y2255417D02*
Y2250086D01*
X2683025Y2250845D02*
Y2256177D01*
Y2229255D02*
Y2234587D01*
Y2203855D02*
Y2209187D01*
X2269411Y2147866D02*
Y2132871D01*
X2276909D01*
X2279408Y2135370D01*
Y2137870D01*
X2276909Y2140369D01*
X2269411D01*
X2276909D01*
X2279408Y2142868D01*
Y2145367D01*
X2276909Y2147866D01*
X2269411D01*
X2294403Y2132871D02*
X2284406D01*
X2294403Y2142868D01*
Y2145367D01*
X2291904Y2147866D01*
X2286906D01*
X2284406Y2145367D01*
X2309398D02*
X2306899Y2147866D01*
X2301901D01*
X2299402Y2145367D01*
Y2135370D01*
X2301901Y2132871D01*
X2306899D01*
X2309398Y2135370D01*
X2329392Y2147866D02*
Y2137870D01*
X2334390Y2132871D01*
X2339389Y2137870D01*
Y2147866D01*
X2344387Y2142868D02*
X2346886D01*
Y2140369D01*
X2344387D01*
Y2142868D01*
Y2135370D02*
X2346886D01*
Y2132871D01*
X2344387D01*
Y2135370D01*
X2356883Y2132871D02*
X2361881D01*
X2359382D01*
Y2147866D01*
X2356883Y2145367D01*
X2369379Y2132871D02*
Y2135370D01*
X2371878D01*
Y2132871D01*
X2369379D01*
X2381875Y2145367D02*
X2384374Y2147866D01*
X2389373D01*
X2391872Y2145367D01*
Y2135370D01*
X2389373Y2132871D01*
X2384374D01*
X2381875Y2135370D01*
Y2145367D01*
X2435659Y2132871D02*
Y2147866D01*
X2428161Y2140369D01*
X2438158D01*
X2443156Y2132871D02*
X2448155D01*
X2445656D01*
Y2147866D01*
X2443156Y2145367D01*
X2455652Y2147866D02*
Y2132871D01*
Y2137870D01*
X2465649Y2147866D01*
X2458152Y2140369D01*
X2465649Y2132871D01*
X2480644D02*
X2470648D01*
X2480644Y2142868D01*
Y2145367D01*
X2478145Y2147866D01*
X2473147D01*
X2470648Y2145367D01*
X2485643D02*
X2488142Y2147866D01*
X2493140D01*
X2495639Y2145367D01*
Y2135370D01*
X2493140Y2132871D01*
X2488142D01*
X2485643Y2135370D01*
Y2145367D01*
X2500638D02*
X2503137Y2147866D01*
X2508136D01*
X2510635Y2145367D01*
Y2135370D01*
X2508136Y2132871D01*
X2503137D01*
X2500638Y2135370D01*
Y2145367D01*
X2515633Y2147866D02*
X2525630Y2132871D01*
Y2147866D02*
X2515633Y2132871D01*
X2530628Y2147866D02*
X2540625Y2132871D01*
Y2147866D02*
X2530628Y2132871D01*
X2545623Y2147866D02*
X2555620Y2132871D01*
Y2147866D02*
X2545623Y2132871D01*
X2560619Y2147866D02*
X2570615Y2132871D01*
Y2147866D02*
X2560619Y2132871D01*
X2575614Y2147866D02*
Y2132871D01*
X2585610D01*
D33*
X2407011Y2183671D02*
Y2186211D01*
X2406996Y2279606D02*
Y2282146D01*
D34*
X2529971Y2182951D02*
Y2192451D01*
X2518971Y2163951D02*
Y2173701D01*
X2529971Y2163951D02*
Y2173701D01*
X2518971Y2163951D02*
X2529971D01*
X2518971Y2182951D02*
Y2192451D01*
X2529971D01*
X2625651Y2163951D02*
Y2173451D01*
X2636652Y2182701D02*
Y2192451D01*
X2625651Y2182701D02*
Y2192451D01*
X2636652D01*
Y2163951D02*
Y2173451D01*
X2625651Y2163951D02*
X2636652D01*
X2379971Y2201911D02*
Y2212911D01*
X2370471D02*
X2379971D01*
X2351471Y2201911D02*
Y2212911D01*
Y2201911D02*
X2361221D01*
X2351471Y2212911D02*
X2361221D01*
X2370471Y2201911D02*
X2379971D01*
X2351471Y2331451D02*
Y2342451D01*
Y2331451D02*
X2360972D01*
X2379971D02*
Y2342451D01*
X2370222D02*
X2379971D01*
X2370222Y2331451D02*
X2379971D01*
X2351471Y2342451D02*
X2360972D01*
X2351471Y2223501D02*
Y2234501D01*
Y2223501D02*
X2360972D01*
X2379971D02*
Y2234501D01*
X2370222D02*
X2379971D01*
X2370222Y2223501D02*
X2379971D01*
X2351471Y2234501D02*
X2360972D01*
X2518971Y2281351D02*
X2529971D01*
X2518971Y2271851D02*
Y2281351D01*
Y2252851D02*
X2529971D01*
Y2262601D01*
X2518971Y2252851D02*
Y2262601D01*
X2529971Y2271851D02*
Y2281351D01*
X2351471Y2309861D02*
Y2320861D01*
Y2309861D02*
X2360972D01*
X2379971D02*
Y2320861D01*
X2370222D02*
X2379971D01*
X2370222Y2309861D02*
X2379971D01*
X2351471Y2320861D02*
X2360972D01*
X2306271Y2200911D02*
Y2213911D01*
X2271771D02*
X2306021D01*
X2271771Y2200911D02*
Y2213911D01*
Y2200911D02*
X2306021D01*
X2284271D02*
Y2213911D01*
X2306271Y2226311D02*
Y2239311D01*
X2271771D02*
X2306021D01*
X2271771Y2226311D02*
Y2239311D01*
Y2226311D02*
X2306021D01*
X2284271D02*
Y2239311D01*
X2306271Y2246631D02*
Y2259631D01*
X2271771D02*
X2306021D01*
X2271771Y2246631D02*
Y2259631D01*
Y2246631D02*
X2306021D01*
X2284271D02*
Y2259631D01*
X2646151Y2246631D02*
Y2259631D01*
X2646402Y2246631D02*
X2680652D01*
Y2259631D01*
X2646401D02*
X2680652D01*
X2668152Y2246631D02*
Y2259631D01*
X2646151Y2225041D02*
Y2238041D01*
X2646402Y2225041D02*
X2680652D01*
Y2238041D01*
X2646401D02*
X2680652D01*
X2668152Y2225041D02*
Y2238041D01*
X2351471Y2180321D02*
Y2191321D01*
Y2180321D02*
X2360972D01*
X2379971D02*
Y2191321D01*
X2370222D02*
X2379971D01*
X2370222Y2180321D02*
X2379971D01*
X2351471Y2191321D02*
X2360972D01*
X2351471Y2266681D02*
Y2277681D01*
Y2266681D02*
X2360972D01*
X2379971D02*
Y2277681D01*
X2370222D02*
X2379971D01*
X2370222Y2266681D02*
X2379971D01*
X2351471Y2277681D02*
X2360972D01*
X2379971Y2245091D02*
Y2256091D01*
X2370471D02*
X2379971D01*
X2351471Y2245091D02*
Y2256091D01*
Y2245091D02*
X2361221D01*
X2351471Y2256091D02*
X2361221D01*
X2370471Y2245091D02*
X2379971D01*
X2275271Y2270491D02*
Y2281491D01*
Y2270491D02*
X2284772D01*
X2303772D02*
Y2281491D01*
X2294021D02*
X2303772D01*
X2294021Y2270491D02*
X2303772D01*
X2275271Y2281491D02*
X2284772D01*
X2351471Y2288271D02*
Y2299271D01*
Y2288271D02*
X2360972D01*
X2379971D02*
Y2299271D01*
X2370222D02*
X2379971D01*
X2370222Y2288271D02*
X2379971D01*
X2351471Y2299271D02*
X2360972D01*
X2498651Y2252851D02*
X2509651D01*
Y2262351D01*
X2498651Y2281351D02*
X2509651D01*
X2498651Y2271601D02*
Y2281351D01*
X2509651Y2271601D02*
Y2281351D01*
X2498651Y2252851D02*
Y2262351D01*
Y2192451D02*
X2509651D01*
X2498651Y2182951D02*
Y2192451D01*
Y2163951D02*
X2509651D01*
Y2173701D01*
X2498651Y2163951D02*
Y2173701D01*
X2509651Y2182951D02*
Y2192451D01*
X2498651Y2202051D02*
X2509651D01*
Y2211551D01*
X2498651Y2230551D02*
X2509651D01*
X2498651Y2220801D02*
Y2230551D01*
X2509651Y2220801D02*
Y2230551D01*
X2498651Y2202051D02*
Y2211551D01*
X2647381Y2270491D02*
Y2281491D01*
Y2270491D02*
X2656882D01*
X2675881D02*
Y2281491D01*
X2666132D02*
X2675881D01*
X2666132Y2270491D02*
X2675881D01*
X2647381Y2281491D02*
X2656882D01*
X2518971Y2230551D02*
X2529971D01*
X2518971Y2221051D02*
Y2230551D01*
Y2202051D02*
X2529971D01*
Y2211801D01*
X2518971Y2202051D02*
Y2211801D01*
X2529971Y2221051D02*
Y2230551D01*
X2625651Y2202051D02*
X2636652D01*
Y2211551D01*
X2625651Y2230551D02*
X2636652D01*
X2625651Y2220801D02*
Y2230551D01*
X2636652Y2220801D02*
Y2230551D01*
X2625651Y2202051D02*
Y2211551D01*
X2646151Y2199641D02*
Y2212641D01*
X2646402Y2199641D02*
X2680652D01*
Y2212641D01*
X2646401D02*
X2680652D01*
X2668152Y2199641D02*
Y2212641D01*
X2433011Y2238419D02*
Y2233421D01*
X2434011Y2232421D01*
X2436010D01*
X2437010Y2233421D01*
Y2238419D01*
X2439009Y2232421D02*
X2441009D01*
X2440009D01*
Y2238419D01*
X2439009Y2237420D01*
X2518891Y2154871D02*
Y2160869D01*
X2521890D01*
X2522890Y2159870D01*
Y2157870D01*
X2521890Y2156871D01*
X2518891D01*
X2520891D02*
X2522890Y2154871D01*
X2524889D02*
X2526889D01*
X2525889D01*
Y2160869D01*
X2524889Y2159870D01*
X2529888D02*
X2530887Y2160869D01*
X2532887D01*
X2533887Y2159870D01*
Y2158870D01*
X2532887Y2157870D01*
X2531887D01*
X2532887D01*
X2533887Y2156871D01*
Y2155871D01*
X2532887Y2154871D01*
X2530887D01*
X2529888Y2155871D01*
X2621411Y2155371D02*
Y2161369D01*
X2624410D01*
X2625410Y2160370D01*
Y2158370D01*
X2624410Y2157371D01*
X2621411D01*
X2623411D02*
X2625410Y2155371D01*
X2627409D02*
X2629409D01*
X2628409D01*
Y2161369D01*
X2627409Y2160370D01*
X2636407Y2155371D02*
X2632408D01*
X2636407Y2159370D01*
Y2160370D01*
X2635407Y2161369D01*
X2633407D01*
X2632408Y2160370D01*
X2558910Y2154871D02*
Y2158870D01*
X2557910Y2159869D01*
X2555911D01*
X2554911Y2158870D01*
Y2154871D01*
X2555911Y2153871D01*
X2557910D01*
X2556911Y2155871D02*
X2558910Y2153871D01*
X2557910D02*
X2558910Y2154871D01*
X2563908Y2153871D02*
Y2159869D01*
X2560909Y2156870D01*
X2564908D01*
X2592410Y2155371D02*
Y2159370D01*
X2591411Y2160369D01*
X2589411D01*
X2588411Y2159370D01*
Y2155371D01*
X2589411Y2154371D01*
X2591411D01*
X2590411Y2156371D02*
X2592410Y2154371D01*
X2591411D02*
X2592410Y2155371D01*
X2594409Y2159370D02*
X2595409Y2160369D01*
X2597408D01*
X2598408Y2159370D01*
Y2158370D01*
X2597408Y2157370D01*
X2596409D01*
X2597408D01*
X2598408Y2156371D01*
Y2155371D01*
X2597408Y2154371D01*
X2595409D01*
X2594409Y2155371D01*
X2356660Y2198240D02*
X2355660Y2199239D01*
X2353661D01*
X2352661Y2198240D01*
Y2194241D01*
X2353661Y2193241D01*
X2355660D01*
X2356660Y2194241D01*
X2358659Y2193241D02*
X2360659D01*
X2359659D01*
Y2199239D01*
X2358659Y2198240D01*
X2356410Y2328370D02*
X2355410Y2329369D01*
X2353411D01*
X2352411Y2328370D01*
Y2324371D01*
X2353411Y2323371D01*
X2355410D01*
X2356410Y2324371D01*
X2362408Y2323371D02*
X2358409D01*
X2362408Y2327370D01*
Y2328370D01*
X2361408Y2329369D01*
X2359409D01*
X2358409Y2328370D01*
X2355910Y2219930D02*
X2354910Y2220929D01*
X2352911D01*
X2351911Y2219930D01*
Y2215931D01*
X2352911Y2214931D01*
X2354910D01*
X2355910Y2215931D01*
X2357909Y2219930D02*
X2358909Y2220929D01*
X2360908D01*
X2361908Y2219930D01*
Y2218930D01*
X2360908Y2217930D01*
X2359909D01*
X2360908D01*
X2361908Y2216931D01*
Y2215931D01*
X2360908Y2214931D01*
X2358909D01*
X2357909Y2215931D01*
X2523660Y2249370D02*
X2522660Y2250369D01*
X2520661D01*
X2519661Y2249370D01*
Y2245371D01*
X2520661Y2244371D01*
X2522660D01*
X2523660Y2245371D01*
X2528658Y2244371D02*
Y2250369D01*
X2525659Y2247370D01*
X2529658D01*
X2356660Y2306190D02*
X2355660Y2307189D01*
X2353661D01*
X2352661Y2306190D01*
Y2302191D01*
X2353661Y2301191D01*
X2355660D01*
X2356660Y2302191D01*
X2362658Y2307189D02*
X2358659D01*
Y2304190D01*
X2360659Y2305190D01*
X2361658D01*
X2362658Y2304190D01*
Y2302191D01*
X2361658Y2301191D01*
X2359659D01*
X2358659Y2302191D01*
X2309161Y2210119D02*
Y2204121D01*
X2312160D01*
X2313160Y2205121D01*
Y2209120D01*
X2312160Y2210119D01*
X2309161D01*
X2315159Y2204121D02*
X2317159D01*
X2316159D01*
Y2210119D01*
X2315159Y2209120D01*
X2309111Y2236119D02*
Y2230121D01*
X2312110D01*
X2313110Y2231121D01*
Y2235120D01*
X2312110Y2236119D01*
X2309111D01*
X2319108Y2230121D02*
X2315109D01*
X2319108Y2234120D01*
Y2235120D01*
X2318108Y2236119D01*
X2316109D01*
X2315109Y2235120D01*
X2308911Y2256369D02*
Y2250371D01*
X2311910D01*
X2312910Y2251371D01*
Y2255370D01*
X2311910Y2256369D01*
X2308911D01*
X2314909Y2255370D02*
X2315909Y2256369D01*
X2317908D01*
X2318908Y2255370D01*
Y2254370D01*
X2317908Y2253370D01*
X2316909D01*
X2317908D01*
X2318908Y2252371D01*
Y2251371D01*
X2317908Y2250371D01*
X2315909D01*
X2314909Y2251371D01*
X2647161Y2267369D02*
Y2261371D01*
X2650161D01*
X2651160Y2262371D01*
Y2266370D01*
X2650161Y2267369D01*
X2647161D01*
X2656158Y2261371D02*
Y2267369D01*
X2653159Y2264370D01*
X2657158D01*
X2646661Y2223119D02*
Y2217121D01*
X2649660D01*
X2650660Y2218121D01*
Y2222120D01*
X2649660Y2223119D01*
X2646661D01*
X2656658D02*
X2652659D01*
Y2220120D01*
X2654659Y2221120D01*
X2655658D01*
X2656658Y2220120D01*
Y2218121D01*
X2655658Y2217121D01*
X2653659D01*
X2652659Y2218121D01*
X2646911Y2197369D02*
Y2191371D01*
X2649910D01*
X2650910Y2192371D01*
Y2196370D01*
X2649910Y2197369D01*
X2646911D01*
X2656908D02*
X2654909Y2196370D01*
X2652910Y2194370D01*
Y2192371D01*
X2653909Y2191371D01*
X2655909D01*
X2656908Y2192371D01*
Y2193371D01*
X2655909Y2194370D01*
X2652910D01*
X2562660Y2234371D02*
Y2238370D01*
X2561660Y2239369D01*
X2559661D01*
X2558661Y2238370D01*
Y2234371D01*
X2559661Y2233371D01*
X2561660D01*
X2560661Y2235371D02*
X2562660Y2233371D01*
X2561660D02*
X2562660Y2234371D01*
X2564659Y2233371D02*
X2566659D01*
X2565659D01*
Y2239369D01*
X2564659Y2238370D01*
X2592660Y2235121D02*
Y2239120D01*
X2591660Y2240119D01*
X2589661D01*
X2588661Y2239120D01*
Y2235121D01*
X2589661Y2234121D01*
X2591660D01*
X2590661Y2236121D02*
X2592660Y2234121D01*
X2591660D02*
X2592660Y2235121D01*
X2598658Y2234121D02*
X2594659D01*
X2598658Y2238120D01*
Y2239120D01*
X2597658Y2240119D01*
X2595659D01*
X2594659Y2239120D01*
X2352661Y2171801D02*
Y2177799D01*
X2355660D01*
X2356660Y2176800D01*
Y2174800D01*
X2355660Y2173801D01*
X2352661D01*
X2354661D02*
X2356660Y2171801D01*
X2358659D02*
X2360659D01*
X2359659D01*
Y2177799D01*
X2358659Y2176800D01*
X2352161Y2258311D02*
Y2264309D01*
X2355160D01*
X2356160Y2263310D01*
Y2261310D01*
X2355160Y2260311D01*
X2352161D01*
X2354161D02*
X2356160Y2258311D01*
X2362158D02*
X2358159D01*
X2362158Y2262310D01*
Y2263310D01*
X2361158Y2264309D01*
X2359159D01*
X2358159Y2263310D01*
X2351661Y2236621D02*
Y2242619D01*
X2354660D01*
X2355660Y2241620D01*
Y2239620D01*
X2354660Y2238621D01*
X2351661D01*
X2353661D02*
X2355660Y2236621D01*
X2357659Y2241620D02*
X2358659Y2242619D01*
X2360658D01*
X2361658Y2241620D01*
Y2240620D01*
X2360658Y2239620D01*
X2359659D01*
X2360658D01*
X2361658Y2238621D01*
Y2237621D01*
X2360658Y2236621D01*
X2358659D01*
X2357659Y2237621D01*
X2306661Y2273121D02*
Y2279119D01*
X2309660D01*
X2310660Y2278120D01*
Y2276120D01*
X2309660Y2275121D01*
X2306661D01*
X2308661D02*
X2310660Y2273121D01*
X2315658D02*
Y2279119D01*
X2312659Y2276120D01*
X2316658D01*
X2351911Y2279751D02*
Y2285749D01*
X2354910D01*
X2355910Y2284750D01*
Y2282750D01*
X2354910Y2281751D01*
X2351911D01*
X2353911D02*
X2355910Y2279751D01*
X2361908Y2285749D02*
X2357909D01*
Y2282750D01*
X2359909Y2283750D01*
X2360908D01*
X2361908Y2282750D01*
Y2280751D01*
X2360908Y2279751D01*
X2358909D01*
X2357909Y2280751D01*
X2499911Y2244371D02*
Y2250369D01*
X2502910D01*
X2503910Y2249370D01*
Y2247370D01*
X2502910Y2246371D01*
X2499911D01*
X2501911D02*
X2503910Y2244371D01*
X2509908Y2250369D02*
X2507909Y2249370D01*
X2505909Y2247370D01*
Y2245371D01*
X2506909Y2244371D01*
X2508908D01*
X2509908Y2245371D01*
Y2246371D01*
X2508908Y2247370D01*
X2505909D01*
X2499411Y2154871D02*
Y2160869D01*
X2502410D01*
X2503410Y2159870D01*
Y2157870D01*
X2502410Y2156871D01*
X2499411D01*
X2501411D02*
X2503410Y2154871D01*
X2505409Y2160869D02*
X2509408D01*
Y2159870D01*
X2505409Y2155871D01*
Y2154871D01*
X2499411Y2232371D02*
Y2238369D01*
X2502410D01*
X2503410Y2237370D01*
Y2235370D01*
X2502410Y2234371D01*
X2499411D01*
X2501411D02*
X2503410Y2232371D01*
X2505409Y2237370D02*
X2506409Y2238369D01*
X2508408D01*
X2509408Y2237370D01*
Y2236370D01*
X2508408Y2235370D01*
X2509408Y2234371D01*
Y2233371D01*
X2508408Y2232371D01*
X2506409D01*
X2505409Y2233371D01*
Y2234371D01*
X2506409Y2235370D01*
X2505409Y2236370D01*
Y2237370D01*
X2506409Y2235370D02*
X2508408D01*
X2648411Y2283371D02*
Y2289369D01*
X2651411D01*
X2652410Y2288370D01*
Y2286370D01*
X2651411Y2285371D01*
X2648411D01*
X2650411D02*
X2652410Y2283371D01*
X2654409Y2284371D02*
X2655409Y2283371D01*
X2657408D01*
X2658408Y2284371D01*
Y2288370D01*
X2657408Y2289369D01*
X2655409D01*
X2654409Y2288370D01*
Y2287370D01*
X2655409Y2286370D01*
X2658408D01*
X2520661Y2232371D02*
Y2238369D01*
X2523660D01*
X2524660Y2237370D01*
Y2235370D01*
X2523660Y2234371D01*
X2520661D01*
X2522661D02*
X2524660Y2232371D01*
X2526659D02*
X2528659D01*
X2527659D01*
Y2238369D01*
X2526659Y2237370D01*
X2531658D02*
X2532657Y2238369D01*
X2534657D01*
X2535656Y2237370D01*
Y2233371D01*
X2534657Y2232371D01*
X2532657D01*
X2531658Y2233371D01*
Y2237370D01*
X2621911Y2239621D02*
Y2245619D01*
X2624910D01*
X2625910Y2244620D01*
Y2242620D01*
X2624910Y2241621D01*
X2621911D01*
X2623911D02*
X2625910Y2239621D01*
X2627910D02*
X2629909D01*
X2628909D01*
Y2245619D01*
X2627910Y2244620D01*
X2632908Y2239621D02*
X2634907D01*
X2633907D01*
Y2245619D01*
X2632908Y2244620D01*
X2749412Y2261869D02*
X2747412D01*
X2748412D01*
Y2256871D01*
X2747412Y2255871D01*
X2746412D01*
X2745413Y2256871D01*
X2755410Y2255871D02*
X2751411D01*
X2755410Y2259870D01*
Y2260870D01*
X2754410Y2261869D01*
X2752411D01*
X2751411Y2260870D01*
X2125660Y2247119D02*
X2123661D01*
X2124660D01*
Y2242121D01*
X2123661Y2241121D01*
X2122661D01*
X2121662Y2242121D01*
X2127659Y2241121D02*
X2129659D01*
X2128659D01*
Y2247119D01*
X2127659Y2246120D01*
X2249993Y2211619D02*
X2244661D01*
Y2207620D01*
X2247327Y2208953D01*
X2248660D01*
X2249993Y2207620D01*
Y2204954D01*
X2248660Y2203621D01*
X2245994D01*
X2244661Y2204954D01*
X2252659Y2211619D02*
Y2206287D01*
X2255325Y2203621D01*
X2257990Y2206287D01*
Y2211619D01*
X2244661Y2257619D02*
Y2249621D01*
X2248660D01*
X2249993Y2250954D01*
Y2256286D01*
X2248660Y2257619D01*
X2244661D01*
X2252659Y2253620D02*
X2257990D01*
X2255325Y2256286D02*
Y2250954D01*
X2244661Y2236869D02*
Y2228871D01*
X2248660D01*
X2249993Y2230204D01*
Y2235536D01*
X2248660Y2236869D01*
X2244661D01*
X2252659Y2232870D02*
X2257990D01*
X2249993Y2280286D02*
X2248660Y2281619D01*
X2245994D01*
X2244661Y2280286D01*
Y2274954D01*
X2245994Y2273621D01*
X2248660D01*
X2249993Y2274954D01*
Y2277620D01*
X2247327D01*
X2252659Y2273621D02*
Y2281619D01*
X2257990Y2273621D01*
Y2281619D01*
X2260656D02*
Y2273621D01*
X2264655D01*
X2265988Y2274954D01*
Y2280286D01*
X2264655Y2281619D01*
X2260656D01*
X2731161Y2292620D02*
X2723164D01*
X2727162Y2288621D01*
Y2293953D01*
X2730911Y2193121D02*
Y2195787D01*
Y2194454D01*
X2722914D01*
X2724247Y2193121D01*
X2685493Y2279536D02*
X2684160Y2280869D01*
X2681494D01*
X2680161Y2279536D01*
Y2274204D01*
X2681494Y2272871D01*
X2684160D01*
X2685493Y2274204D01*
Y2276870D01*
X2682827D01*
X2688159Y2272871D02*
Y2280869D01*
X2693490Y2272871D01*
Y2280869D01*
X2696156D02*
Y2272871D01*
X2700155D01*
X2701488Y2274204D01*
Y2279536D01*
X2700155Y2280869D01*
X2696156D01*
X2687661Y2236119D02*
Y2228121D01*
X2691660D01*
X2692993Y2229454D01*
Y2234786D01*
X2691660Y2236119D01*
X2687661D01*
X2695659Y2232120D02*
X2700990D01*
X2687661Y2256869D02*
Y2248871D01*
X2691660D01*
X2692993Y2250204D01*
Y2255536D01*
X2691660Y2256869D01*
X2687661D01*
X2695659Y2252870D02*
X2700990D01*
X2698325Y2255536D02*
Y2250204D01*
X2692993Y2210869D02*
X2687661D01*
Y2206870D01*
X2690327Y2208203D01*
X2691660D01*
X2692993Y2206870D01*
Y2204204D01*
X2691660Y2202871D01*
X2688994D01*
X2687661Y2204204D01*
X2695659Y2210869D02*
Y2205537D01*
X2698325Y2202871D01*
X2700990Y2205537D01*
Y2210869D01*
D35*
X2566382Y2187726D02*
Y2192806D01*
X2543521Y2177566D02*
Y2178836D01*
X2566382Y2163596D02*
Y2168676D01*
X2554951Y2192806D02*
X2566382D01*
X2554951Y2163596D02*
X2566382D01*
X2589241D02*
Y2168676D01*
X2612101Y2177566D02*
Y2178836D01*
X2589241Y2187726D02*
Y2192806D01*
Y2163596D02*
X2600671D01*
X2589241Y2192806D02*
X2600671D01*
X2566382Y2225826D02*
Y2230906D01*
X2543521Y2215666D02*
Y2216936D01*
X2566382Y2201696D02*
Y2206776D01*
X2554951Y2230906D02*
X2566382D01*
X2554951Y2201696D02*
X2566382D01*
X2589241D02*
Y2206776D01*
X2612101Y2215666D02*
Y2216936D01*
X2589241Y2225826D02*
Y2230906D01*
Y2201696D02*
X2600671D01*
X2589241Y2230906D02*
X2600671D01*
D36*
X2222896Y2182868D02*
Y2302868D01*
X2708695Y2308368D02*
X2847696D01*
Y2177368D02*
Y2308368D01*
X2708695Y2177368D02*
X2847696D01*
X2708695D02*
Y2308368D01*
X2038994Y2182868D02*
X2222896D01*
X2222896Y2182868D02*
Y2302868D01*
X2038994D02*
X2222896D01*
X2036396Y2184368D02*
Y2301368D01*
Y2184368D02*
X2038994Y2182868D01*
X2036396Y2301368D02*
X2038994Y2302868D01*
M02*
